<?xml version="1.0" standalone="no"?>
<!DOCTYPE svg PUBLIC "-//W3C//DTD SVG 20010904//EN"
 "http://www.w3.org/TR/2001/REC-SVG-20010904/DTD/svg10.dtd">
<svg version="1.0" xmlns="http://www.w3.org/2000/svg"
 width="1024.000000pt" height="1024.000000pt" viewBox="0 0 1024.000000 1024.000000"
 preserveAspectRatio="xMidYMid meet">
<metadata>
Created by potrace 1.16, written by Peter Selinger 2001-2019
</metadata>
<g transform="translate(0.000000,1024.000000) scale(0.100000,-0.100000)"
fill="#000000" stroke="none">
<path d="M0 5120 l0 -5120 5120 0 5120 0 0 5120 0 5120 -5120 0 -5120 0 0
-5120z m5345 4656 c735 -19 1520 -283 2185 -734 364 -247 674 -533 983 -907
382 -464 697 -1098 852 -1713 39 -159 64 -269 71 -322 2 -19 9 -60 14 -90 11
-61 26 -168 35 -245 3 -27 10 -86 15 -130 54 -453 22 -936 -104 -1560 -19 -96
-46 -188 -58 -200 -7 -7 -8 -3 -4 11 7 23 49 202 72 309 34 158 75 456 93 685
10 114 7 527 -3 605 -3 22 -8 65 -12 95 -3 30 -7 69 -9 85 -2 17 -6 55 -10 85
-36 354 -136 768 -268 1110 -44 114 -119 281 -125 276 -3 -3 -11 -1 -19 5 -10
9 -13 8 -13 -1 0 -6 9 -14 19 -17 24 -6 36 -34 20 -43 -8 -6 -8 -9 0 -14 6 -4
11 -1 12 6 0 7 7 -5 16 -27 16 -43 43 -105 50 -117 2 -4 -4 -5 -13 -1 -12 4
-15 3 -10 -5 4 -7 15 -12 24 -13 11 0 12 -3 5 -6 -7 -2 -13 -9 -13 -14 0 -6 5
-7 11 -3 6 3 4 -5 -6 -19 -16 -25 -16 -25 8 -23 15 2 24 -2 24 -11 0 -8 -6
-12 -14 -8 -8 3 -24 -2 -36 -10 -18 -13 -19 -15 -4 -15 17 0 21 -11 17 -39 -1
-13 1 -13 14 -2 9 8 16 9 16 3 0 -6 12 -15 28 -20 24 -9 24 -11 5 -11 -12 -1
-25 4 -28 10 -5 6 -12 4 -21 -8 -8 -11 -13 -13 -14 -5 0 6 -5 12 -10 12 -6 0
-3 -12 7 -27 l17 -26 7 24 c7 23 7 23 8 2 1 -12 -7 -27 -16 -32 -16 -9 -14
-10 7 -8 20 2 25 -2 23 -20 -2 -19 0 -21 20 -14 18 7 26 5 35 -9 10 -17 9 -18
-18 -10 -16 4 -31 6 -34 3 -3 -3 -13 0 -22 8 -16 13 -16 12 -3 -8 8 -13 17
-23 21 -23 4 0 5 -8 2 -17 -3 -10 1 -7 9 6 9 15 17 20 21 13 4 -6 14 -8 24 -5
15 6 15 5 -1 -12 -18 -18 -18 -19 5 -36 12 -10 19 -19 14 -19 -5 0 -4 -6 2
-12 8 -10 4 -13 -14 -13 -13 0 -24 5 -24 10 -1 6 -8 -3 -16 -19 -15 -26 -14
-36 11 -137 15 -60 31 -106 36 -103 5 3 9 1 9 -5 0 -5 -4 -11 -9 -13 -5 -1 -3
-12 6 -23 15 -20 15 -20 8 3 -5 17 -2 22 11 22 13 0 11 5 -10 21 -14 11 -26
29 -26 40 0 21 8 23 29 10 10 -6 19 -3 31 11 14 18 17 19 23 5 4 -11 2 -14 -9
-10 -7 3 -14 0 -14 -6 0 -6 6 -11 14 -11 21 0 28 -17 17 -38 -6 -11 -7 -22 -4
-26 4 -4 8 -14 9 -24 2 -9 8 -18 13 -20 6 -2 11 -8 11 -14 0 -5 -12 0 -27 11
-14 12 -28 19 -31 16 -3 -3 -3 -6 -1 -8 56 -42 60 -47 45 -47 -9 0 -16 -4 -16
-10 0 -5 4 -10 10 -10 5 0 7 -8 3 -17 -5 -17 -5 -17 8 -1 13 17 15 16 26 -8 9
-20 9 -23 0 -15 -17 13 -53 7 -49 -9 2 -8 -3 -10 -13 -6 -9 3 -20 6 -24 6 -4
0 -8 13 -9 29 -1 17 -7 40 -12 53 -8 19 -9 16 -5 -17 2 -22 6 -49 8 -60 22
-111 9 -84 -17 35 -95 439 -200 739 -401 1145 -120 242 -165 320 -298 512
-176 254 -380 491 -586 681 -443 408 -927 704 -1476 902 -476 172 -886 244
-1380 243 -559 0 -1008 -87 -1548 -300 -474 -186 -921 -468 -1264 -796 -150
-144 -193 -182 -180 -160 5 8 -2 10 -24 8 -40 -5 -42 -8 -19 -23 16 -10 18 -9
14 3 -4 8 -1 15 5 15 12 0 14 -11 5 -34 -5 -14 -8 -14 -21 -1 -8 8 -20 15 -26
14 -9 0 -9 -2 0 -5 7 -3 9 -12 6 -20 -3 -8 0 -14 7 -14 7 0 6 -5 -4 -15 -11
-11 -21 -13 -40 -5 -35 13 -33 21 4 13 26 -5 29 -3 23 13 -4 11 -8 13 -11 6
-2 -7 -8 -12 -14 -12 -6 0 -7 7 -4 16 4 10 -1 25 -9 35 -15 16 -15 18 4 24 11
3 36 21 54 39 18 18 39 30 47 28 7 -3 10 0 6 7 -9 14 -36 15 -36 1 0 -5 -7
-10 -15 -10 -19 0 -19 11 1 36 8 10 12 13 8 5 -6 -11 -3 -13 12 -7 10 5 25 9
33 9 11 0 10 3 -2 12 -13 9 -13 13 -1 30 18 25 19 25 39 0 9 -11 14 -14 10 -7
-3 6 -1 12 4 12 6 0 11 7 11 15 0 9 -6 12 -17 8 -10 -3 -7 3 7 13 14 10 28 23
32 28 5 7 8 7 8 -1 0 -7 6 -10 14 -7 8 3 13 11 10 17 -5 16 13 43 23 34 4 -5
1 -12 -7 -17 -8 -5 -12 -11 -9 -15 3 -3 14 4 24 15 10 11 13 20 7 20 -7 0 -12
5 -12 10 0 17 25 11 38 -10 10 -17 10 -20 -5 -20 -15 0 -14 -2 3 -15 19 -15
19 -15 -1 -9 -16 5 -17 4 -5 -4 16 -12 33 -5 27 11 -2 7 3 18 12 25 15 11 15
12 0 6 -10 -3 -19 1 -22 10 -9 24 3 46 24 46 12 0 19 7 19 20 0 11 7 20 15 20
8 0 15 5 15 11 0 5 5 7 10 4 19 -12 11 -34 -11 -30 -17 3 -20 0 -16 -15 4 -16
0 -20 -19 -20 -14 0 -24 -6 -24 -15 0 -9 6 -12 15 -9 9 4 15 0 16 -7 0 -8 5
-3 11 11 6 14 10 29 9 33 -1 4 6 7 16 5 10 -2 19 5 22 17 3 11 15 21 26 23 20
2 20 2 1 -13 -11 -8 -17 -17 -14 -20 7 -7 38 22 38 35 0 16 -19 21 -39 11 -14
-8 -22 -7 -31 4 -7 8 -18 15 -24 15 -7 0 -6 -4 2 -9 11 -6 10 -10 -5 -16 -10
-5 -22 -7 -26 -6 -4 0 -18 -8 -30 -20 -12 -11 -58 -53 -102 -92 -146 -132
-220 -209 -207 -214 17 -7 15 -20 -3 -20 -8 0 -15 5 -15 10 0 5 -18 -10 -40
-34 -21 -24 -37 -50 -35 -57 3 -7 1 -11 -4 -8 -13 8 -74 -61 -66 -75 5 -7 4
-10 -2 -6 -6 4 -16 0 -23 -8 -10 -12 -10 -18 0 -30 7 -8 17 -12 23 -8 6 4 7 1
3 -6 -6 -9 -13 -8 -27 5 -11 9 -20 15 -22 13 -1 -2 -19 -24 -38 -49 -164 -207
-416 -599 -503 -783 -10 -21 -20 -36 -23 -33 -5 5 75 157 165 313 97 168 327
494 459 650 210 248 637 630 871 778 9 6 38 25 64 43 26 17 52 32 57 32 6 0
14 6 18 14 4 8 10 14 13 14 7 0 64 32 123 70 28 18 65 39 83 47 17 7 35 19 39
26 6 8 4 10 -5 4 -9 -6 -11 -4 -5 4 4 7 16 10 27 8 18 -5 89 28 96 45 2 5 9 5
14 2 7 -5 8 -2 4 5 -5 7 0 18 10 26 23 17 34 19 34 5 0 -5 -7 -10 -15 -10 -8
0 -15 -4 -15 -9 0 -5 14 -4 30 2 17 6 30 15 30 20 0 4 -4 5 -10 2 -5 -3 -10
-1 -10 4 0 6 5 11 12 11 6 0 40 14 75 30 35 17 74 31 86 33 12 1 28 9 35 17
12 13 13 13 8 -2 -3 -10 -4 -18 -2 -18 8 0 66 32 66 36 0 3 -4 2 -10 -1 -5 -3
-10 -2 -10 4 0 5 18 12 40 16 22 4 42 11 45 15 3 5 20 7 38 5 24 -4 28 -2 17
6 -12 8 -9 10 12 6 15 -2 29 0 30 5 2 5 19 13 38 18 19 5 87 25 150 44 123 38
370 87 535 107 55 6 141 17 190 24 50 7 166 13 260 14 93 1 171 4 173 5 1 2
12 2 25 0 12 -2 108 -5 212 -8z m195 -461 c170 -18 436 -65 568 -101 405 -110
852 -318 1212 -565 281 -192 680 -569 880 -829 224 -293 400 -591 535 -906 74
-171 175 -458 175 -492 -1 -9 -18 35 -39 98 -124 374 -316 766 -518 1060 -95
137 -193 261 -203 255 -4 -3 -7 3 -6 13 0 9 -5 16 -12 14 -8 -1 -11 1 -8 6 21
34 -565 606 -608 594 -6 -2 -8 0 -4 4 8 8 -60 63 -78 64 -6 0 -19 10 -28 23
-9 12 -14 16 -10 8 10 -21 -45 18 -57 41 -5 10 -14 16 -20 13 -5 -4 -9 -1 -9
4 0 6 -7 11 -15 11 -8 0 -15 5 -15 10 0 6 -6 10 -14 10 -7 0 -21 10 -30 23 -9
12 -14 16 -10 8 5 -10 -2 -9 -24 4 -17 10 -29 21 -27 25 2 3 -17 17 -43 30
-26 14 -56 33 -67 43 -10 9 -26 15 -34 12 -9 -3 -12 -3 -8 1 9 9 -103 75 -115
68 -4 -3 -8 -1 -8 4 0 12 -98 64 -109 58 -5 -3 -12 1 -15 10 -4 9 -13 14 -21
10 -8 -3 -15 -1 -15 5 0 6 -7 9 -15 5 -9 -3 -23 3 -32 14 -9 10 -20 17 -25 14
-13 -8 -49 6 -43 17 3 5 -1 6 -9 3 -9 -4 -16 -1 -16 6 0 7 -6 10 -14 7 -8 -3
-20 1 -27 9 -6 8 -17 13 -23 12 -17 -3 -86 25 -86 35 0 4 -4 5 -10 2 -5 -3
-27 3 -48 14 -22 11 -42 18 -45 14 -3 -3 -13 1 -21 10 -8 8 -45 21 -81 28 -36
7 -65 16 -65 20 0 4 -25 10 -55 14 -30 3 -55 11 -55 17 0 5 -6 8 -14 5 -8 -3
-17 -3 -20 1 -4 3 -14 7 -24 8 -9 1 -48 9 -87 18 -103 26 -175 38 -220 38 -22
0 -42 3 -45 8 -3 5 -39 11 -80 15 -41 3 -91 8 -110 10 -85 9 -574 12 -660 4
-266 -26 -384 -43 -515 -76 -33 -8 -78 -18 -100 -22 -118 -23 -330 -88 -476
-146 -451 -181 -845 -418 -1204 -725 -48 -41 -97 -81 -109 -89 l-21 -15 20 21
c61 61 225 200 325 274 304 225 573 378 954 540 308 132 811 247 1196 273 112
8 520 -4 660 -19z m-275 -130 c128 -7 259 -22 310 -35 55 -13 65 -12 59 5 -4
8 -10 15 -16 15 -5 0 -6 -5 -2 -11 7 -12 -15 -7 -66 14 -14 6 -34 9 -45 9
l-20 -2 20 9 c12 5 34 3 56 -4 19 -7 48 -10 64 -7 18 3 26 1 22 -6 -4 -5 0
-12 8 -16 8 -3 14 -2 14 2 -1 4 -1 13 0 20 1 17 53 12 59 -6 3 -11 1 -11 -17
-1 -25 16 -45 2 -31 -21 7 -11 10 -11 10 -2 0 7 5 10 10 7 6 -4 7 -11 4 -17
-4 -6 1 -8 16 -3 15 5 20 4 16 -4 -4 -6 0 -11 9 -11 9 0 13 5 10 10 -3 6 -3
10 2 10 4 0 13 -11 20 -25 6 -14 7 -25 3 -25 -5 0 -10 6 -13 13 -3 9 -10 9
-28 -2 -13 -7 -21 -10 -16 -6 8 10 -41 45 -63 45 -8 0 -1 -10 17 -21 43 -28
83 -109 83 -171 0 -98 -44 -149 -145 -171 -30 -6 -55 -14 -55 -17 0 -4 40 -60
88 -126 83 -112 141 -174 163 -174 5 0 9 -7 9 -16 0 -13 -6 -15 -27 -9 -16 3
-70 13 -121 20 -61 9 -101 20 -114 32 -12 10 -43 63 -69 119 -62 130 -95 166
-146 162 l-38 -3 -3 -105 -3 -104 37 -34 c20 -18 34 -35 32 -37 -2 -2 -44 0
-93 5 -50 5 -123 10 -162 10 -42 0 -73 4 -73 10 0 6 6 10 13 10 8 0 24 11 36
24 29 31 38 100 47 352 6 185 6 203 -12 232 -10 18 -26 35 -36 38 -10 3 -18 9
-18 13 0 17 16 21 54 17 23 -3 86 -8 141 -11z m-509 -16 c4 -7 -1 -16 -10 -21
-30 -17 -49 -70 -48 -133 1 -33 10 -150 22 -259 20 -200 30 -236 65 -236 14 0
27 -25 18 -34 -4 -3 -24 -6 -46 -6 -22 0 -82 -7 -134 -16 -52 -9 -97 -14 -100
-11 -3 3 4 18 16 32 11 15 23 42 27 59 8 45 -42 477 -61 522 -10 23 -25 39
-45 47 -16 6 -30 14 -30 17 0 7 230 47 282 49 20 0 40 -4 44 -10z m1596 -178
c131 -44 173 -71 111 -71 -16 0 -34 -4 -42 -9 -15 -10 -102 -222 -95 -233 5
-8 290 88 312 105 19 15 14 53 -10 70 l-23 16 23 0 c29 1 272 -110 272 -124 0
-6 -35 -11 -83 -11 -67 -1 -100 -8 -181 -37 -97 -35 -118 -49 -111 -71 81
-248 155 -431 199 -489 26 -33 33 -57 18 -57 -4 0 -54 24 -112 53 -58 30 -124
61 -147 70 -47 18 -50 26 -29 60 13 20 10 36 -30 166 -24 80 -44 150 -44 157
0 16 -34 27 -59 19 -22 -7 -41 -49 -67 -152 -19 -73 -17 -86 18 -135 7 -9 10
-19 7 -22 -5 -5 -285 91 -299 102 -3 2 4 8 15 15 11 6 37 27 58 46 34 32 46
58 103 221 62 175 91 309 68 310 -5 1 -19 9 -32 20 -25 21 -20 46 7 34 9 -3
78 -27 153 -53z m-2227 39 c3 -5 -7 -16 -22 -24 -15 -8 -43 -29 -60 -48 -38
-39 -163 -245 -163 -268 0 -10 28 -30 68 -50 37 -19 105 -56 151 -83 86 -49
195 -98 244 -111 30 -7 37 -36 9 -36 -19 0 -182 -53 -269 -89 -29 -11 -53 -17
-53 -11 0 5 5 12 10 15 18 11 11 51 -12 71 -13 11 -50 38 -83 59 -33 21 -79
51 -102 66 l-43 28 -26 -44 c-23 -41 -25 -48 -14 -82 28 -84 59 -125 115 -149
21 -8 34 -19 29 -24 -5 -4 -45 -23 -89 -43 -44 -19 -105 -46 -137 -60 l-56
-26 14 27 c28 54 26 83 -12 197 -20 61 -37 117 -39 125 -1 8 -7 27 -13 42
-105 257 -102 252 -153 244 -47 -8 -53 9 -6 19 38 9 190 79 230 108 21 14 31
17 40 8 8 -8 6 -15 -11 -27 -31 -22 -29 -79 8 -192 17 -51 30 -101 30 -111 0
-46 19 -18 101 147 88 176 108 242 74 242 -26 0 -16 19 13 26 15 3 65 19 112
34 96 32 106 34 115 20z m1319 -706 c307 -49 660 -192 884 -360 253 -190 484
-508 580 -799 86 -259 114 -432 108 -650 -7 -230 -39 -393 -120 -615 -48 -133
-47 -131 -59 -123 -6 3 -7 1 -3 -6 4 -6 -6 -37 -22 -69 -88 -169 -97 -182
-110 -177 -10 3 -12 0 -9 -10 7 -18 -5 -26 -22 -16 -11 7 -9 13 8 30 11 11 21
26 21 31 0 6 10 10 23 10 18 0 19 2 7 10 -13 9 -13 12 4 25 10 7 16 17 13 22
-8 13 49 118 63 115 8 -2 10 3 6 13 -3 9 0 26 6 38 7 12 13 24 14 27 1 3 5 15
9 28 4 12 11 22 15 22 4 0 6 13 5 30 -1 16 2 27 6 24 4 -2 10 10 14 28 3 18
10 44 15 58 35 107 55 200 66 310 8 84 12 100 26 118 8 10 9 13 1 9 -9 -5 -11
16 -11 80 1 82 -2 120 -18 231 -6 37 -9 42 -26 36 -18 -5 -18 -4 -8 16 10 18
14 20 21 9 10 -16 12 -8 3 15 -3 9 -10 13 -16 10 -6 -4 -7 8 -3 30 6 32 4 37
-16 45 -13 5 -28 6 -33 3 -5 -3 -6 3 -3 13 5 11 1 22 -10 31 -10 7 -13 13 -8
13 14 0 47 -26 45 -35 -1 -5 3 -10 9 -12 11 -4 9 11 -10 91 -9 39 -14 46 -25
36 -18 -15 -12 -48 11 -65 10 -8 14 -14 7 -14 -20 0 -51 41 -44 59 5 14 4 14
-11 2 -16 -12 -16 -16 -3 -30 10 -11 12 -21 6 -31 -17 -27 -12 -60 10 -60 11
0 21 -6 21 -12 2 -23 -3 -43 -12 -49 -6 -3 -3 -11 6 -19 8 -7 15 -19 15 -26 0
-7 6 -11 13 -8 8 3 13 -4 14 -17 2 -16 -1 -18 -11 -10 -11 9 -12 6 -8 -14 2
-15 0 -25 -7 -25 -6 0 -11 9 -11 20 0 11 -6 20 -12 21 -10 0 -10 2 0 6 30 12
10 48 -33 59 -5 1 -19 5 -30 9 l-20 8 20 -16 c11 -9 27 -17 36 -17 21 0 18
-33 -7 -62 l-19 -23 21 18 c19 16 22 16 27 2 7 -18 -2 -73 -13 -80 -12 -8 1
-55 16 -55 31 0 6 -28 -31 -35 -5 -1 -13 -3 -17 -5 -5 -1 -12 -3 -18 -4 -20
-2 -14 -21 8 -24 25 -4 28 -12 10 -30 -9 -9 -9 -12 0 -12 6 0 16 8 21 18 6 9
11 11 11 5 0 -7 8 -13 18 -13 14 0 15 2 2 10 -13 8 -12 10 3 10 10 0 17 -8 17
-19 0 -18 15 -35 32 -36 17 0 19 -15 1 -15 -28 0 -35 -10 -20 -29 10 -14 10
-14 -4 -4 -9 7 -18 10 -21 7 -3 -2 -18 -7 -34 -10 -27 -4 -28 -3 -10 11 10 8
24 12 29 8 6 -4 8 0 4 9 -3 9 -1 20 4 25 5 5 0 14 -12 21 -19 12 -20 11 -14
-8 13 -41 -43 -70 -64 -32 -6 9 -11 12 -11 5 0 -15 53 -53 75 -53 11 0 15 -5
11 -16 -5 -12 -1 -14 17 -9 16 5 18 4 8 -3 -18 -13 -7 -42 16 -41 17 1 17 2 0
6 -9 2 -15 8 -12 13 7 12 35 1 35 -14 0 -6 -9 -17 -21 -24 -12 -8 -18 -9 -15
-4 6 10 -23 26 -32 17 -3 -3 0 -5 6 -5 7 0 12 -5 12 -11 0 -6 -6 -9 -13 -6 -7
3 -20 -9 -30 -27 l-17 -31 20 24 c11 13 22 22 25 20 8 -9 -20 -89 -31 -89 -7
0 -15 -4 -19 -9 -3 -6 4 -8 15 -6 11 2 20 0 20 -6 0 -5 5 -9 10 -9 6 0 10 13
10 29 0 35 15 48 26 23 4 -9 6 -20 6 -24 -1 -5 2 -8 8 -8 5 0 10 -5 10 -11 0
-8 -5 -8 -15 1 -8 7 -13 16 -10 20 3 5 2 11 -3 14 -4 2 -8 -8 -7 -24 0 -15 3
-26 7 -24 4 2 9 0 13 -6 8 -12 -10 -13 -51 -1 -30 9 -31 8 -29 -20 2 -24 0
-27 -11 -18 -7 6 -13 18 -12 27 3 36 -2 53 -13 46 -7 -4 -10 -1 -7 7 3 8 13
13 23 11 11 -2 14 1 10 8 -4 6 -13 9 -21 6 -7 -3 -16 -1 -19 4 -4 6 3 10 15
10 12 0 19 4 15 9 -3 5 -1 12 5 16 13 8 13 35 -1 35 -6 0 -9 -6 -7 -12 3 -7
-6 -21 -18 -31 -13 -10 -21 -24 -17 -32 3 -11 -2 -15 -18 -16 -21 -1 -21 -2
-4 -6 49 -12 66 -60 31 -86 -6 -5 -1 -7 12 -4 17 4 22 2 18 -9 -8 -21 26 -75
44 -69 9 3 8 -1 -4 -9 -10 -8 -16 -22 -13 -30 4 -10 0 -14 -13 -13 -15 1 -17
4 -8 15 9 10 8 16 -2 22 -8 5 -18 6 -24 3 -5 -3 -6 -1 -2 6 4 6 11 9 16 6 5
-3 11 -1 15 5 3 5 1 10 -5 10 -6 0 -9 3 -6 8 9 15 -19 39 -39 32 -19 -7 -19
-7 2 -14 22 -7 22 -8 4 -27 -11 -12 -25 -17 -37 -13 -17 5 -17 4 -3 -8 9 -7
14 -20 11 -28 -4 -12 -2 -13 9 -2 16 15 33 16 23 1 -3 -6 -1 -15 6 -19 8 -5 7
-9 -5 -13 -9 -4 -13 -3 -10 3 3 6 1 10 -5 10 -6 0 -13 -7 -16 -15 -4 -8 -15
-15 -25 -15 -22 0 -23 -4 -9 -30 9 -16 8 -18 -5 -14 -9 4 -14 9 -11 11 3 3 -6
16 -20 30 -21 21 -23 27 -12 41 12 15 11 16 -4 3 -10 -7 -18 -19 -18 -27 0 -7
8 -18 18 -23 16 -10 16 -10 -2 -11 -15 0 -16 -3 -6 -15 9 -10 9 -15 1 -15 -6
0 -11 -8 -12 -17 0 -16 -1 -15 -8 2 -7 17 -8 16 -15 -9 -6 -23 -9 -26 -21 -16
-8 7 -15 8 -15 3 0 -16 51 -63 61 -57 5 3 9 0 9 -5 0 -6 -7 -11 -15 -11 -8 0
-15 5 -15 10 0 6 -7 10 -15 10 -8 0 -15 7 -15 15 0 8 -5 15 -10 15 -7 0 -7 -6
-1 -18 7 -13 6 -23 -2 -31 -9 -10 -9 -11 4 -6 15 6 67 -30 57 -40 -3 -3 -11 1
-18 10 -7 8 -19 15 -26 15 -18 0 -57 -77 -44 -85 6 -3 10 -15 10 -26 0 -10 4
-19 9 -19 5 0 12 -8 15 -17 6 -15 4 -15 -14 2 -11 10 -20 24 -20 32 0 7 -5 13
-11 13 -5 0 -8 -4 -5 -9 3 -5 -1 -12 -10 -15 -10 -4 -13 -13 -9 -27 5 -16 3
-20 -12 -17 -14 2 -18 -3 -18 -29 0 -17 -3 -29 -7 -26 -5 2 -8 -2 -8 -9 0 -9
-2 -10 -8 -2 -5 9 -11 8 -20 -2 -12 -14 -5 -19 20 -15 4 0 5 -7 2 -17 -4 -12
0 -10 15 7 12 13 21 19 21 13 0 -6 -7 -18 -16 -26 -8 -9 -12 -22 -8 -28 3 -7
-5 -1 -19 15 l-25 27 -6 -26 c-5 -17 -12 -24 -21 -20 -9 3 -12 0 -9 -9 6 -15
44 -28 44 -14 0 5 -4 9 -10 9 -5 0 -7 7 -4 15 6 15 25 21 23 8 -4 -26 4 -40
29 -49 25 -10 25 -10 -13 -9 -22 1 -40 3 -40 4 0 10 -45 8 -48 -2 -2 -6 -3 -3
-1 8 2 11 6 55 10 98 5 61 10 77 23 78 13 1 13 2 -1 6 -13 3 -18 15 -18 39 0
19 -5 55 -11 80 -16 62 11 176 51 219 35 37 60 93 60 137 0 18 -9 62 -20 98
-34 109 -59 228 -79 375 -19 130 -65 299 -91 330 -8 10 -3 15 21 24 17 6 33
19 36 30 3 13 15 21 36 23 21 2 39 15 61 41 28 35 31 45 29 102 -1 49 -8 78
-30 122 -18 34 -30 76 -31 101 -1 24 -7 51 -13 60 -9 15 -10 15 -5 -1 3 -11 2
-15 -4 -12 -6 3 -10 12 -10 20 0 7 -16 36 -35 65 -19 29 -35 58 -35 65 0 17
-48 75 -63 75 -6 0 -25 12 -41 27 -17 16 -25 21 -18 13 6 -8 12 -17 12 -21 0
-9 -136 47 -168 70 -50 34 -123 61 -246 88 -117 26 -144 28 -326 22 -41 -1
-91 3 -110 9 -19 7 -66 14 -105 17 -38 3 -73 9 -77 13 -14 14 -254 -15 -388
-48 -19 -5 -55 -11 -80 -15 -84 -13 -225 -54 -293 -84 -71 -32 -78 -37 -115
-86 l-24 -30 7 30 c4 17 18 50 32 75 l25 45 -46 -50 c-25 -27 -45 -59 -46 -70
0 -11 -6 -40 -14 -65 -10 -35 -18 -46 -37 -48 -22 -2 -76 -19 -141 -44 -15 -5
-25 -15 -22 -23 3 -7 -8 -17 -25 -25 -48 -19 -151 -122 -151 -149 0 -19 7 -14
42 33 70 95 54 53 -20 -52 -107 -149 -184 -283 -179 -309 2 -13 0 -23 -5 -23
-5 0 -7 -9 -3 -20 3 -11 3 -25 -1 -32 -4 -6 -9 -37 -12 -67 -2 -31 -8 -61 -13
-67 -4 -6 -11 -33 -14 -60 -3 -27 -10 -78 -15 -114 -19 -128 -7 -426 24 -625
8 -55 17 -117 20 -137 2 -21 7 -42 11 -48 4 -6 12 -51 19 -100 10 -74 10 -87
-1 -78 -7 6 -13 26 -13 45 0 19 -4 32 -9 29 -5 -3 -11 1 -15 9 -8 22 -25 18
-19 -5 3 -11 1 -20 -4 -20 -12 0 -14 38 -2 45 5 4 9 11 9 17 0 6 -7 5 -17 -3
-9 -8 -14 -9 -10 -3 4 7 0 15 -9 18 -9 4 -14 13 -10 22 3 8 2 12 -4 9 -6 -3
-10 -4 -10 -1 0 2 -3 13 -7 23 -6 16 -5 16 10 4 15 -12 17 -11 17 8 0 18 -3
20 -19 11 -11 -5 -22 -15 -25 -22 -3 -7 -4 -4 -3 7 1 11 5 22 8 25 4 3 0 12
-9 20 -14 13 -15 12 -9 -3 3 -9 2 -17 -4 -17 -6 0 -7 -6 -3 -12 5 -9 2 -9 -9
1 -9 7 -17 19 -17 25 0 6 5 4 10 -4 7 -10 8 -3 5 25 -5 39 -43 107 -56 99 -10
-6 5 57 20 84 7 12 16 20 22 17 10 -7 12 6 3 29 -5 13 -9 14 -20 5 -8 -6 -11
-16 -7 -21 3 -6 0 -9 -7 -6 -8 2 -16 11 -18 19 -3 8 -1 11 3 7 13 -13 35 12
35 39 0 22 -2 24 -15 13 -9 -7 -13 -20 -10 -29 4 -12 1 -11 -9 2 -10 12 -21
17 -34 13 -12 -4 -22 -1 -25 8 -4 11 0 13 20 10 15 -3 30 -7 35 -10 8 -5 11 7
9 36 0 10 1 11 5 3 9 -20 21 -15 19 8 -1 12 -9 27 -18 34 -9 7 -14 15 -10 19
3 3 15 -1 25 -11 10 -9 18 -11 18 -5 0 6 -5 14 -10 17 -6 4 -8 10 -5 14 2 5
-7 7 -21 5 -16 -1 -24 2 -21 9 2 7 13 11 23 9 18 -3 18 -3 -1 11 -18 14 -21
14 -28 -5 -4 -12 -3 -26 2 -31 5 -5 7 -15 5 -22 -3 -6 5 -17 18 -23 23 -11 23
-11 -4 -9 -15 1 -24 5 -22 9 3 4 -4 8 -15 8 -12 0 -21 4 -21 10 0 5 7 7 16 3
12 -4 15 -2 12 8 -3 8 -11 13 -17 11 -9 -2 -8 4 1 20 7 13 13 30 14 38 1 8 4
22 6 30 3 8 3 12 1 8 -9 -15 -25 -8 -19 8 3 8 2 12 -3 9 -5 -3 -12 -1 -15 4
-3 5 1 11 8 14 20 8 16 43 -4 44 -11 1 -16 -6 -16 -20 1 -17 -5 -21 -30 -23
-19 -1 -31 3 -31 11 0 14 14 14 36 1 11 -7 13 -5 8 8 -4 10 -2 26 3 36 8 16 6
22 -10 32 -11 7 -20 17 -20 22 0 5 11 -1 25 -14 13 -12 22 -27 19 -31 -7 -12
3 -11 27 2 23 12 16 31 -7 22 -14 -5 -15 -3 -5 15 10 18 9 22 -4 22 -8 0 -15
-5 -15 -11 0 -5 -5 -7 -12 -3 -8 5 -9 9 -1 11 6 2 9 14 7 26 -2 12 -2 16 2 10
3 -7 13 -13 22 -13 12 0 5 11 -20 35 -36 32 -54 61 -23 35 17 -14 21 0 4 17
-8 8 -8 13 0 17 10 7 12 2 15 -43 1 -8 6 -16 13 -18 9 -3 9 5 1 31 -14 46 3
72 36 54 l21 -11 -20 23 c-14 16 -16 24 -7 27 6 3 12 12 13 21 0 14 2 13 9 -3
6 -13 9 -15 9 -5 1 8 -13 29 -31 45 -18 17 -29 24 -24 18 4 -7 2 -13 -3 -13
-17 0 -13 20 6 27 10 4 19 1 21 -6 5 -14 31 16 32 36 0 16 -30 44 -41 38 -5
-4 -6 1 -3 9 8 20 8 20 42 0 26 -16 26 -15 -3 9 -22 19 -32 23 -42 15 -15 -12
-18 -68 -3 -68 6 0 10 5 10 12 0 6 3 8 6 5 4 -4 1 -14 -6 -22 -11 -13 -15 -13
-21 -3 -12 19 -11 62 2 75 8 8 0 18 -26 38 -26 20 -32 30 -23 36 7 4 18 3 25
-3 7 -6 13 -6 13 -1 0 9 59 37 73 34 4 0 7 3 7 9 0 5 -4 10 -10 10 -5 0 -7 7
-3 16 3 9 0 20 -8 26 -10 7 -8 8 9 3 18 -5 22 -3 21 17 0 13 -3 17 -6 10 -2
-6 -9 -9 -15 -6 -6 4 -5 10 3 15 12 8 11 11 -1 19 -11 7 -16 5 -18 -5 -2 -8
-7 -15 -12 -15 -4 0 -6 9 -3 20 4 15 11 18 28 14 20 -5 23 -3 18 15 -3 12 -1
21 6 21 5 0 8 -6 5 -13 -6 -15 23 -16 46 -2 11 7 8 12 -15 22 -21 10 -23 13
-7 9 12 -2 22 0 22 5 0 4 7 5 17 2 11 -4 14 -3 9 6 -4 6 -15 10 -24 9 -17 -3
-25 32 -15 59 8 19 33 16 33 -4 0 -14 -2 -15 -9 -4 -12 19 -25 -4 -13 -25 6
-11 12 -13 16 -6 4 6 14 8 24 5 13 -5 14 -3 5 7 -16 18 -5 42 17 35 10 -3 21
-2 24 3 3 5 -6 10 -21 10 -15 0 -29 5 -31 11 -2 6 -10 18 -19 26 -13 13 -13
15 1 15 10 0 13 6 10 18 -5 15 -4 15 6 -1 6 -10 9 -25 6 -33 -3 -8 1 -15 12
-16 9 0 22 -2 27 -3 6 -2 15 -3 22 -4 7 0 11 -7 9 -13 -1 -7 -1 -10 1 -5 3 4
9 5 14 1 5 -3 9 0 9 6 0 6 -11 15 -25 20 -14 5 -25 12 -25 16 0 3 11 19 25 36
29 34 30 41 10 58 -19 15 -20 34 -2 27 8 -3 20 -1 28 4 11 7 10 9 -5 9 -16 0
-16 2 -5 16 11 14 14 12 28 -10 24 -40 42 -34 20 6 -9 16 -8 23 2 29 10 6 11
9 2 9 -7 0 -13 7 -13 15 0 8 5 15 10 15 6 0 10 -4 10 -10 0 -5 5 -10 12 -10 6
0 4 8 -6 19 -11 12 -25 16 -41 13 -14 -2 -25 0 -25 7 0 5 7 8 15 5 8 -4 15 -2
15 4 0 6 -6 13 -12 15 -8 4 -9 6 -2 6 6 1 17 -6 24 -14 18 -21 30 -19 31 8 0
21 1 21 9 2 8 -19 9 -18 9 4 1 24 1 24 16 5 15 -19 15 -19 8 0 -5 15 -3 18 10
13 9 -3 19 -2 23 4 3 5 15 7 27 4 21 -6 21 -6 2 6 -11 7 -23 17 -27 23 -5 6
-8 1 -8 -11 0 -16 -5 -21 -15 -17 -8 3 -13 11 -12 17 1 7 -6 11 -15 9 -10 -2
-18 1 -18 6 0 16 27 21 40 9 10 -10 12 -7 7 11 -3 12 -1 22 4 22 5 0 9 -6 9
-14 0 -8 7 -16 15 -20 12 -4 13 -2 3 14 -7 10 -9 23 -4 27 4 4 12 0 17 -10 6
-9 14 -15 19 -12 5 3 12 0 16 -6 4 -7 3 -9 -3 -6 -6 4 -13 0 -17 -8 -3 -8 0
-17 7 -21 7 -4 9 -4 5 1 -4 4 -1 13 8 19 13 10 12 15 -9 38 -14 15 -27 24 -30
22 -3 -3 -10 4 -17 15 -6 12 -7 21 -1 21 5 0 7 10 4 23 -5 22 -5 22 10 2 9
-11 11 -21 6 -23 -5 -2 -9 -8 -9 -13 0 -6 4 -8 9 -5 5 3 11 -1 15 -9 6 -17 36
-9 36 10 0 16 30 29 42 17 12 -12 18 -52 8 -52 -5 0 -10 10 -12 23 -3 24 -20
27 -26 5 -2 -9 0 -8 7 2 9 13 11 13 11 -2 0 -10 -7 -18 -15 -18 -8 0 -15 -4
-15 -9 0 -5 10 -7 23 -4 22 5 22 5 2 -10 -11 -9 -15 -17 -10 -17 6 0 17 6 24
13 11 10 14 10 18 0 3 -7 9 -13 15 -13 7 0 6 5 -1 14 -8 10 -9 16 -1 21 7 4 7
12 0 25 -13 24 -13 43 0 35 6 -3 10 -4 10 -1 0 2 3 11 6 20 4 11 1 16 -11 16
-10 0 -13 -5 -9 -12 4 -7 3 -8 -4 -4 -9 5 -9 12 0 25 11 18 12 18 29 -3 9 -11
14 -23 10 -26 -9 -6 -22 -40 -16 -40 6 0 65 58 65 65 0 13 -19 3 -22 -12 -3
-14 -8 -10 -20 14 -11 23 -13 34 -4 38 6 3 -1 3 -17 1 -22 -3 -25 -1 -16 10
12 15 0 19 -17 7 -5 -5 -4 -2 2 5 10 12 17 11 40 -4 16 -10 32 -22 35 -27 4
-5 16 -6 28 -2 19 6 19 8 6 21 -19 20 -19 28 0 20 8 -3 15 -1 15 4 0 5 6 7 14
4 8 -3 17 0 22 7 4 8 3 10 -4 5 -7 -4 -12 -1 -12 6 0 23 34 37 54 23 13 -10
14 -14 4 -18 -8 -4 -7 -6 5 -6 9 -1 17 6 17 14 0 20 29 19 54 -2 12 -10 8 -3
-8 15 -27 29 -25 47 2 20 9 -9 12 -8 12 5 0 9 -8 17 -17 18 -13 0 -14 2 -4 6
11 4 11 7 0 14 -23 14 -4 20 27 9 l29 -10 -22 19 c-12 10 -19 21 -16 25 4 3 1
6 -4 6 -6 0 -14 -6 -16 -12 -4 -10 -6 -10 -6 0 -1 8 8 16 19 19 13 4 17 9 12
17 -12 15 -11 46 1 46 5 0 6 -7 3 -16 -4 -10 3 -24 16 -36 18 -15 19 -18 6
-14 -10 3 -18 3 -18 0 0 -6 39 -45 64 -65 18 -13 19 -13 7 9 -6 12 -19 22 -27
22 -17 0 -16 40 1 52 6 5 3 8 -6 8 -9 0 -19 9 -22 20 -3 11 -1 20 4 20 5 0 9
-7 9 -15 0 -20 7 -19 32 5 12 11 28 20 35 20 7 0 13 5 13 11 0 12 -42 1 -51
-13 -4 -6 -9 -6 -13 1 -4 6 -2 11 4 11 7 0 10 6 7 13 -3 8 8 12 33 13 31 2 37
-1 36 -18 -1 -12 -14 -26 -35 -37 -23 -10 -35 -24 -36 -38 -1 -18 1 -20 12
-12 7 6 24 8 39 5 22 -6 24 -5 12 7 -7 8 -20 12 -28 9 -11 -3 -10 1 4 14 13
14 20 15 23 7 3 -7 9 -13 15 -13 6 0 7 8 4 17 -5 13 0 11 18 -6 21 -20 28 -22
41 -11 13 11 13 15 3 21 -10 7 -9 9 5 9 9 0 17 5 17 10 0 6 5 10 11 10 5 0 7
-4 4 -10 -3 -5 -1 -10 5 -10 8 0 9 10 5 30 -4 18 -3 30 4 30 6 0 8 -7 5 -15
-5 -12 -2 -14 12 -8 17 6 18 5 4 -13 -9 -12 -9 -15 -1 -7 11 9 18 7 34 -8 12
-11 26 -18 32 -16 14 5 19 37 6 37 -6 0 -8 -7 -5 -15 4 -8 2 -15 -4 -15 -14 0
-23 28 -12 35 6 4 10 15 10 26 0 17 11 24 33 20 5 -1 6 3 2 9 -3 5 -1 10 4 10
6 0 11 -7 11 -15 0 -9 6 -12 17 -8 10 4 14 2 10 -4 -9 -15 24 -26 37 -13 7 7
6 10 -2 10 -18 0 -82 43 -81 55 3 30 -2 36 -28 31 -49 -9 -73 -18 -73 -28 0
-5 -4 -7 -9 -4 -5 4 -33 -3 -63 -13 -29 -10 -72 -25 -96 -32 -24 -7 -49 -21
-56 -31 -7 -10 -16 -15 -19 -11 -4 3 -7 -2 -8 -13 0 -10 -3 -13 -6 -6 -8 21
-33 13 -33 -10 0 -16 -3 -19 -8 -10 -7 10 -19 8 -57 -8 -26 -11 -45 -23 -42
-27 4 -3 13 0 22 7 12 10 16 9 21 -4 5 -14 9 -14 23 -4 14 12 15 11 2 -5 -10
-13 -17 -15 -27 -6 -8 6 -14 7 -14 2 0 -5 -9 -9 -20 -10 -11 -1 -20 3 -20 8 0
5 -12 2 -27 -8 -41 -26 -50 -37 -45 -52 3 -10 -1 -12 -17 -8 -12 3 -27 -1 -35
-9 -8 -8 -18 -14 -23 -14 -4 0 -26 -17 -48 -38 -22 -21 -45 -41 -52 -43 -25
-9 -192 -178 -180 -182 7 -3 4 -6 -7 -6 -12 -1 -16 -6 -12 -17 5 -12 2 -15
-10 -10 -10 4 -14 2 -11 -6 2 -7 10 -12 16 -10 7 1 10 -2 6 -8 -3 -6 -10 -8
-15 -5 -5 3 -11 -3 -13 -12 -3 -13 -5 -12 -6 5 -1 13 -5 20 -11 17 -6 -4 -8
-15 -5 -25 3 -10 1 -21 -4 -24 -6 -4 -8 -13 -5 -20 3 -8 0 -17 -7 -22 -7 -4
-10 -3 -6 2 3 6 2 16 -2 22 -6 10 -11 9 -22 -4 -9 -12 -10 -15 -1 -10 7 4 12
1 12 -8 0 -8 -9 -20 -20 -26 -21 -11 -28 -50 -8 -50 6 0 9 -2 6 -5 -11 -12
-37 7 -31 23 3 9 -4 3 -15 -14 -11 -17 -23 -40 -26 -52 -4 -12 -12 -22 -17
-22 -5 0 -9 -9 -9 -20 0 -11 -6 -20 -12 -20 -7 0 -2 -10 12 -21 14 -11 19 -18
13 -14 -7 3 -21 8 -31 10 -15 3 -18 -2 -16 -23 2 -17 -7 -39 -23 -60 -13 -18
-22 -40 -19 -47 3 -8 2 -15 -3 -15 -5 0 -8 -8 -8 -17 0 -40 -4 -48 -14 -28 -8
17 -9 16 -6 -8 3 -19 1 -25 -7 -18 -8 7 -11 2 -10 -17 1 -27 -13 -61 -31 -74
-7 -5 -7 -8 0 -8 12 0 13 -65 2 -76 -5 -5 -5 0 -1 10 5 14 4 17 -4 12 -7 -4
-12 -16 -12 -27 0 -13 -5 -18 -12 -14 -7 4 -5 0 5 -8 13 -11 15 -17 7 -22 -7
-4 -10 -18 -7 -31 2 -13 0 -21 -4 -18 -5 3 -9 -6 -9 -20 0 -14 -5 -26 -12 -26
-9 0 -9 -3 0 -12 17 -17 15 -33 -2 -18 -12 9 -15 7 -14 -12 1 -13 4 -27 7 -33
11 -18 6 -41 -12 -59 -22 -22 -22 -35 1 -53 16 -14 16 -14 0 -9 -21 6 -25 -19
-5 -27 9 -4 8 -8 -3 -16 -13 -10 -13 -11 0 -11 12 0 12 -2 1 -9 -9 -6 -10 -11
-2 -15 15 -10 14 -46 -1 -46 -9 0 -8 -3 2 -10 8 -5 11 -12 8 -15 -48 -48 -27
355 29 544 9 31 16 62 16 69 0 6 4 12 8 12 4 0 10 15 13 33 18 87 148 342 240
471 82 114 260 297 371 382 119 92 340 215 487 273 152 60 379 109 568 124 97
7 400 -4 494 -19z m1787 -130 c28 -13 60 -24 71 -24 13 0 18 -5 15 -14 -4 -10
-1 -13 8 -9 8 3 12 9 9 14 -3 5 0 10 5 10 6 1 16 3 21 4 6 1 25 3 43 4 24 1
28 4 17 11 -11 7 -5 10 23 10 35 0 68 -15 110 -50 9 -8 25 -15 34 -15 9 0 19
-7 21 -15 5 -13 3 -13 -14 0 -31 25 37 -51 98 -108 31 -30 61 -51 67 -48 5 4
9 -2 8 -13 -2 -27 -24 -14 -76 45 l-41 47 4 -45 c12 -125 43 -195 123 -279 64
-67 114 -88 170 -71 43 13 50 10 28 -12 -19 -18 -61 -21 -102 -5 -113 42 -232
206 -233 321 0 37 -35 115 -69 154 -10 11 -38 31 -63 42 -37 19 -52 21 -92 13
-62 -11 -80 -29 -71 -71 4 -17 9 -29 12 -26 3 3 14 -6 25 -19 36 -47 102 -25
94 31 -4 24 -29 29 -49 9 -11 -10 -18 -12 -22 -4 -10 15 27 39 50 33 23 -7 45
-32 45 -50 0 -7 -10 -25 -23 -40 -20 -23 -28 -26 -60 -20 -39 7 -83 50 -93 92
-3 13 -9 24 -13 25 -69 7 -122 32 -166 79 -24 25 -27 33 -15 40 10 6 20 4 32
-7 9 -8 40 -26 69 -39z m-1233 -533 c33 -2 17 -21 -18 -21 -16 0 -39 -4 -52
-9 -13 -5 -57 -19 -98 -31 -79 -23 -118 -39 -160 -66 -14 -9 -10 -3 10 15 23
21 28 30 15 25 -11 -4 -27 -12 -35 -19 -26 -21 -113 -65 -118 -61 -2 3 18 19
46 36 28 17 53 37 56 45 7 18 56 44 134 69 57 19 118 24 220 17z m77 -151
c-10 -11 -21 -17 -26 -15 -4 3 -10 1 -13 -4 -9 -14 18 -7 49 13 50 33 165 30
165 -4 0 -7 -6 -8 -18 -1 -14 7 -30 5 -59 -10 -51 -25 -62 -37 -113 -129 -35
-64 -41 -70 -36 -40 l5 35 -17 -24 c-42 -61 -51 -60 -19 1 21 42 31 72 26 80
-7 10 -9 8 -9 -5 0 -10 -4 -15 -10 -12 -6 3 -7 -1 -4 -12 5 -17 5 -17 -6 0
-14 22 3 72 27 81 8 3 12 10 8 16 -3 5 9 19 27 30 41 25 46 25 23 0z m-907
-249 c-2 -18 3 -24 10 -13 7 10 18 9 55 -7 26 -11 47 -16 47 -11 0 5 -9 12
-20 15 -11 3 -20 11 -20 17 0 6 -8 7 -17 3 -14 -5 -15 -3 -6 6 9 9 21 4 53
-21 23 -18 55 -34 71 -36 17 -2 34 -6 39 -9 5 -3 11 -1 15 5 3 5 16 10 28 9
l22 0 -22 -9 c-13 -5 -23 -12 -23 -15 0 -4 5 -3 10 0 6 4 18 1 26 -6 12 -10
13 -9 9 4 -4 8 -1 18 4 22 6 3 9 10 6 15 -3 4 4 6 16 3 11 -3 17 -9 12 -12
-11 -8 -11 -27 1 -38 5 -5 6 -3 2 5 -5 8 0 12 16 11 13 0 17 -3 11 -6 -7 -2
-13 -9 -13 -14 0 -4 6 -6 13 -3 7 2 21 -4 32 -15 12 -14 26 -19 44 -16 14 3
20 2 14 -1 -7 -3 -13 -10 -13 -15 0 -6 4 -7 10 -4 5 3 31 -6 57 -20 26 -14 58
-25 70 -25 12 0 23 -4 25 -10 3 -9 63 -35 138 -60 l25 -8 -25 -1 c-23 -1 -23
-3 -7 -12 10 -6 27 -9 38 -6 10 3 19 1 19 -4 0 -5 21 -9 48 -10 l47 -1 -50
-12 -50 -12 44 -6 c41 -6 77 3 91 22 8 11 72 40 87 40 8 0 11 -4 8 -10 -3 -5
0 -10 8 -10 8 0 35 -22 61 -50 25 -27 49 -49 52 -47 17 6 60 -153 83 -308 5
-38 17 -115 26 -170 9 -55 18 -110 20 -123 2 -13 9 -29 15 -37 21 -25 2 -32
-81 -34 -45 -1 -86 -4 -91 -7 -4 -3 -8 0 -8 7 0 7 -3 9 -6 6 -4 -4 -20 1 -35
10 -21 12 -28 23 -24 38 2 11 -1 8 -7 -7 -12 -28 -38 -38 -38 -15 -1 6 -7 -3
-15 -20 -14 -32 -30 -48 -19 -19 4 10 -1 14 -14 13 -10 0 -19 -6 -19 -12 1
-45 -2 -48 -28 -31 -32 21 -38 20 -30 -4 4 -12 2 -20 -5 -20 -8 0 -10 9 -6 28
17 68 22 110 15 128 -5 13 -8 6 -8 -24 -1 -24 -9 -57 -18 -75 -9 -18 -17 -34
-16 -37 1 -3 -7 -6 -17 -6 -18 0 -18 2 -3 18 11 13 12 18 3 18 -7 0 -10 8 -7
20 3 11 -1 23 -8 28 -7 4 -13 16 -13 27 1 11 0 36 -2 55 -2 31 -4 29 -14 -22
-10 -53 -26 -88 -26 -58 0 10 -4 10 -17 -1 -15 -12 -16 -12 -11 3 8 20 -32 34
-44 15 -4 -7 -8 -7 -8 -2 0 6 -30 10 -68 11 -78 1 -169 11 -182 19 -6 4 -10 2
-10 -4 0 -6 -17 -4 -42 5 -23 8 -48 12 -55 10 -7 -3 -13 -1 -13 4 0 13 -89 2
-112 -14 -10 -7 -15 -16 -11 -19 3 -4 -3 -7 -15 -7 -22 0 -124 -25 -145 -35
-6 -4 -3 1 7 9 19 15 19 16 2 16 -11 0 -24 -7 -31 -17 -9 -13 -14 -13 -20 -3
-5 9 -4 11 3 6 8 -5 11 0 8 16 -2 13 0 31 5 40 6 10 5 19 -1 23 -6 4 -8 11 -5
16 4 5 0 9 -7 10 -7 0 -4 4 7 8 11 5 25 4 33 -1 12 -10 17 0 13 30 -1 8 6 11
21 9 13 -2 17 -2 9 0 -12 4 -12 6 0 14 9 6 10 9 2 9 -7 0 -24 -11 -39 -25 -36
-34 -47 -32 -26 5 9 16 23 29 31 27 8 -1 16 4 18 11 4 9 -2 11 -20 7 -14 -4
-28 -2 -32 5 -4 6 -18 15 -31 20 -14 6 -22 15 -18 23 3 8 -2 17 -11 21 -9 3
-13 2 -10 -4 3 -6 -3 -10 -14 -10 -13 0 -21 7 -22 18 0 12 -3 11 -10 -6 -10
-26 -35 -25 -33 2 1 9 -5 16 -13 16 -9 0 -11 5 -7 12 12 18 12 47 1 45 -5 -1
-12 4 -14 11 -3 6 2 12 10 12 8 0 20 7 27 15 9 10 9 15 1 15 -6 0 -11 -3 -11
-8 0 -4 -16 -7 -35 -8 -19 0 -32 2 -29 5 3 3 9 6 12 6 27 2 53 20 58 41 3 13
12 24 19 24 17 0 64 39 48 40 -7 0 -13 -4 -13 -10 0 -5 -5 -10 -11 -10 -5 0
-8 4 -5 8 2 4 -4 9 -15 9 -21 2 -26 -13 -6 -20 6 -3 1 -6 -12 -6 -17 -1 -22 3
-17 15 4 9 1 23 -5 30 -8 10 -5 15 15 20 14 3 26 10 26 15 0 5 9 9 19 9 23 0
37 -30 19 -42 -8 -6 -5 -7 10 -3 13 4 29 1 37 -5 11 -9 15 -9 15 -1 0 6 -6 11
-12 11 -9 0 -8 4 2 11 13 9 13 10 -2 6 -18 -6 -33 19 -15 26 7 2 2 2 -10 1
-12 -2 -25 1 -28 6 -4 6 -11 8 -16 5 -5 -4 -17 -2 -26 4 -14 8 -10 9 18 6 26
-3 36 -1 36 9 0 8 -9 13 -22 12 -11 -2 -30 1 -40 6 -18 8 -18 8 3 4 25 -5 30
9 7 21 -13 7 -12 11 4 25 16 14 20 14 25 2 3 -8 11 -14 18 -14 7 0 3 9 -10 22
-21 21 -22 22 -35 4 -12 -17 -14 -17 -20 -2 -4 10 -1 16 9 16 8 0 13 4 10 9
-3 4 5 6 18 4 13 -3 27 0 30 6 8 12 -63 51 -94 51 -11 0 -20 5 -20 11 0 6 6 9
13 7 6 -3 20 3 31 13 18 18 18 18 -10 16 -16 -1 -32 -6 -35 -11 -4 -4 -10 -3
-13 3 -4 6 -2 11 3 11 6 0 11 5 11 11 0 6 -9 9 -20 6 -24 -6 -27 8 -4 17 9 4
23 1 31 -5 22 -19 39 4 26 33 -10 24 -7 51 6 44 4 -3 13 0 21 5 11 7 8 8 -10
5 -14 -2 -36 2 -49 8 -21 12 -18 13 25 11 67 -3 66 -3 53 -26 -8 -16 -8 -24 1
-33 8 -8 10 -7 5 5 -11 28 13 31 31 4 9 -14 19 -23 22 -21 2 3 -8 19 -22 37
-21 24 -24 35 -15 43 8 8 13 8 16 -1 3 -7 9 -13 15 -13 6 0 6 6 -2 15 -14 17
-40 20 -40 5 0 -18 -16 -10 -17 9 -1 10 5 18 12 17 8 0 14 2 14 7 1 4 -2 7 -5
6 -4 0 -11 5 -15 13 -7 10 -9 9 -9 -4 0 -11 -5 -15 -14 -12 -8 3 -21 -5 -30
-17 -8 -13 -18 -20 -22 -16 -10 10 30 54 45 49 9 -3 11 0 6 9 -5 8 -5 11 -1 7
5 -4 18 -3 31 2 26 10 68 2 60 -11 -3 -4 -13 -6 -23 -3 -13 5 -14 4 -3 -4 7
-5 10 -15 7 -21 -12 -18 2 -12 24 11 11 12 23 18 27 15 3 -4 1 -7 -6 -7 -7 0
-9 -5 -5 -11 11 -18 24 12 13 32 -8 15 -6 16 20 6 17 -6 29 -13 29 -16z m889
-1132 c-5 -4 -7 -11 -3 -17 3 -6 1 -14 -5 -18 -8 -5 -9 -3 -4 7 5 8 4 11 0 6
-5 -4 -10 -15 -11 -25 -2 -9 -6 -29 -10 -44 -4 -16 2 -51 15 -90 11 -35 37
-130 57 -213 19 -82 38 -152 41 -155 3 -3 2 9 -2 25 -12 48 -21 165 -13 165 4
0 8 -4 8 -10 0 -5 5 -10 10 -10 6 0 9 3 8 8 -2 4 2 7 7 7 6 0 9 -3 8 -6 -1 -3
18 -7 41 -7 31 -2 46 2 49 13 4 8 1 17 -5 21 -7 4 -2 14 13 26 13 11 18 17 12
13 -7 -3 -13 -1 -13 4 0 15 12 14 39 -5 22 -16 23 -16 14 2 -8 14 -5 24 10 38
20 19 20 19 14 -3 -3 -12 1 -68 9 -124 15 -103 12 -191 -8 -274 -6 -24 -14
-40 -18 -38 -5 3 -12 0 -16 -6 -5 -8 -3 -9 6 -4 10 6 11 4 5 -11 -4 -10 -8
-29 -8 -41 -1 -13 -5 -23 -9 -23 -4 0 -8 -9 -8 -20 0 -11 -4 -20 -9 -20 -5 0
-7 -8 -4 -19 3 -10 1 -21 -4 -24 -5 -3 -8 14 -6 38 2 24 -1 46 -6 49 -5 3 -7
-2 -4 -13 3 -10 0 -22 -6 -25 -7 -5 -8 -1 -4 10 4 12 2 15 -8 12 -14 -5 -16
-17 -18 -106 -1 -24 -5 -41 -10 -37 -5 3 -13 0 -17 -6 -4 -7 -3 -9 4 -5 6 3
13 2 16 -3 4 -5 1 -13 -5 -17 -8 -4 -7 -9 2 -15 11 -7 11 -9 1 -9 -9 0 -11 -7
-7 -19 10 -34 5 -164 -7 -177 -4 -3 -4 -12 -1 -20 3 -8 1 -14 -3 -14 -5 0 -10
-14 -11 -32 -1 -17 -7 -36 -12 -41 -6 -6 -9 18 -7 62 1 39 -2 71 -6 71 -4 0
-5 10 -3 21 4 20 -19 79 -31 79 -3 0 -4 -8 -3 -17 5 -51 -23 -66 -46 -25 -33
60 -41 66 -98 63 -29 -1 -69 5 -89 13 -37 16 -63 15 -96 -3 -15 -8 -24 -6 -41
13 -12 12 -18 26 -14 31 5 4 0 5 -9 2 -10 -3 -20 -2 -23 3 -4 6 -1 10 6 10 7
0 9 3 5 7 -4 4 -16 -3 -27 -17 -11 -14 -17 -18 -14 -10 4 11 -1 16 -14 16 -11
0 -17 -5 -14 -10 4 -5 -1 -7 -9 -3 -9 3 -19 2 -24 -3 -5 -5 -25 -11 -45 -13
-41 -4 -62 -15 -54 -27 3 -4 -2 -11 -11 -14 -10 -4 -13 -2 -8 7 4 6 -2 4 -13
-6 -11 -9 -27 -15 -35 -12 -8 3 -21 -1 -28 -10 -15 -18 0 -21 18 -3 9 9 12 9
12 0 0 -7 -6 -13 -12 -14 -7 0 -17 -2 -23 -2 -5 -1 -17 -6 -25 -11 -13 -8 -13
-7 -1 8 7 9 10 17 6 17 -4 0 -3 6 1 13 14 18 11 47 -5 57 -12 7 -12 11 -2 24
9 11 10 16 2 16 -6 0 -11 -5 -11 -11 0 -5 -14 -15 -31 -21 -20 -7 -28 -15 -25
-25 3 -8 1 -11 -4 -8 -6 3 -10 1 -10 -6 0 -10 -3 -10 -12 -1 -15 15 -38 16
-38 2 0 -5 6 -9 13 -7 6 1 12 -6 12 -17 0 -18 42 -42 53 -31 3 3 0 5 -6 5 -6
0 -10 9 -9 19 0 11 5 17 9 15 4 -3 8 -1 8 5 0 5 7 17 16 26 13 13 19 14 25 4
9 -14 1 -39 -13 -39 -5 0 -6 5 -3 10 3 6 2 10 -3 10 -13 0 -23 -27 -16 -45 4
-8 -1 -17 -10 -21 -9 -3 -13 -11 -9 -17 4 -6 8 -23 9 -36 2 -17 0 -21 -5 -12
-6 9 -11 10 -15 2 -11 -18 -29 -13 -21 7 5 13 3 14 -6 5 -13 -13 -2 -36 15
-30 7 3 18 -4 25 -15 11 -17 10 -23 -3 -36 -9 -10 -16 -11 -16 -5 0 6 6 13 13
16 9 4 9 7 -1 18 -11 12 -14 12 -22 -1 -5 -8 -7 -17 -5 -20 2 -4 -3 -7 -11 -7
-10 0 -11 4 -4 11 5 5 10 15 10 21 0 5 -4 4 -9 -4 -5 -8 -14 -10 -21 -6 -10 6
-9 10 2 16 8 4 14 18 13 31 -2 18 -8 23 -28 21 -15 -1 -26 1 -26 5 3 20 -3 25
-12 12 -9 -13 -10 -13 -6 0 2 8 14 17 26 18 17 3 21 0 15 -9 -5 -9 -2 -11 9
-6 10 3 17 2 17 -3 0 -6 4 -10 10 -10 5 0 7 7 4 15 -5 11 -1 14 12 10 11 -3 7
0 -8 8 -21 10 -24 16 -17 30 8 13 6 17 -5 17 -9 0 -13 -6 -10 -14 7 -18 -11
-29 -36 -21 -16 5 -18 10 -9 26 5 11 15 16 21 13 7 -5 9 -2 5 9 -3 9 -1 18 6
20 7 2 9 7 6 11 -3 3 -15 -4 -28 -15 l-22 -21 4 51 c3 29 1 51 -5 51 -5 0 -6
5 -2 11 3 6 17 8 30 5 19 -5 24 -3 24 14 0 18 -3 19 -20 10 -11 -6 -24 -8 -29
-6 -5 3 -11 -1 -15 -9 -3 -8 -13 -14 -23 -14 -16 1 -16 2 -1 6 9 2 15 10 12
17 -3 9 6 16 27 20 18 3 29 9 26 13 -4 3 -2 12 4 19 5 6 7 24 3 38 -4 19 -16
28 -45 36 -21 6 -41 15 -44 20 -4 6 -11 7 -17 4 -6 -4 -9 -1 -6 7 3 8 13 14
24 14 13 0 18 6 16 18 -2 9 2 17 8 17 6 0 9 -4 6 -8 -2 -4 5 -14 17 -21 12 -8
19 -10 15 -6 -4 5 0 13 9 20 15 11 15 12 0 18 -9 3 -16 3 -16 -1 3 -19 -3 -20
-19 -4 -11 9 -17 20 -15 24 2 4 -2 5 -10 2 -8 -3 -18 -1 -21 4 -3 5 3 12 14
15 11 3 20 10 20 16 0 9 -5 9 -20 1 -14 -8 -20 -8 -18 0 2 6 -10 18 -27 28
-52 30 -63 45 -60 80 1 17 -1 32 -6 32 -5 0 -9 -10 -9 -22 -1 -22 -1 -22 -12
-3 -6 11 -17 24 -25 28 -7 4 -13 13 -13 19 0 6 6 6 16 -2 12 -11 18 -11 31 2
14 15 13 16 -8 16 -40 -1 -79 6 -79 13 0 13 25 16 45 6 18 -9 19 -9 6 6 -7 10
-24 17 -37 17 -25 0 -64 27 -64 45 0 5 5 3 10 -5 6 -9 10 -10 10 -3 0 19 -21
27 -31 12 -7 -11 -9 -11 -9 3 0 9 13 27 29 41 17 14 27 28 24 31 -10 10 -25 7
-18 -3 3 -5 1 -12 -4 -15 -13 -8 -21 18 -10 35 13 21 11 32 -6 25 -20 -7 -19
13 2 36 9 10 11 18 6 18 -6 0 -16 -7 -23 -15 -7 -9 -15 -13 -18 -10 -3 3 2 13
12 24 16 17 16 18 -7 14 -19 -4 -25 0 -30 19 -5 21 -5 21 7 6 12 -16 15 -16
32 -2 17 14 17 15 2 10 -19 -6 -25 9 -8 19 6 4 8 12 4 18 -3 7 3 1 14 -13 12
-14 24 -21 29 -17 4 5 1 12 -6 16 -9 6 -10 11 -2 15 6 4 21 0 33 -8 30 -21 55
-22 38 -1 -10 12 -9 15 4 15 9 0 19 -7 22 -15 4 -8 10 -12 15 -9 5 3 9 0 9 -5
0 -6 14 -11 30 -11 17 0 30 -5 30 -11 0 -6 6 -9 13 -6 6 2 18 -3 25 -12 12
-14 13 -14 8 2 -10 30 58 26 89 -7 30 -32 70 -63 60 -47 -5 8 9 1 30 -15 22
-16 36 -24 32 -18 -4 7 0 14 8 17 9 4 12 1 9 -7 -3 -8 -1 -17 5 -21 6 -3 11
-3 11 2 0 4 24 8 53 9 76 1 97 6 97 24 0 13 2 13 10 0 7 -12 12 -12 37 0 15 8
38 23 51 34 39 34 26 -5 -18 -54 -22 -24 -40 -45 -40 -47 0 -11 79 44 86 61 6
11 8 15 7 7 -3 -11 2 -10 17 4 16 14 17 20 8 27 -8 4 -8 8 -2 8 19 0 24 -13
11 -28 -10 -13 -8 -14 12 -7 20 6 23 4 18 -9 -4 -9 -2 -16 3 -16 18 0 25 5 22
15 -2 6 2 4 9 -2 10 -11 9 -16 -7 -29 -10 -8 -13 -13 -6 -9 7 4 12 -1 12 -13
0 -11 7 -26 17 -33 15 -13 15 -12 5 8 -10 17 -9 22 5 27 9 4 21 1 27 -5 8 -9
7 -10 -6 -6 -20 7 -21 6 -12 -17 3 -9 10 -16 16 -16 5 0 7 4 3 9 -3 5 -1 12 5
16 7 4 7 13 0 26 -6 11 -15 17 -19 14 -11 -6 -23 23 -15 36 3 5 1 9 -4 9 -5 0
-7 12 -4 28 l6 27 6 -25 c5 -19 12 -25 32 -23 22 1 25 -2 22 -28 -2 -16 1 -29
7 -29 6 0 8 -4 5 -9 -9 -14 27 -7 44 9 9 8 15 19 12 24 -3 5 0 6 7 1 9 -5 7
-12 -8 -26 -27 -25 -27 -39 0 -39 11 0 17 -4 14 -10 -3 -5 1 -20 9 -32 13 -18
16 -19 16 -5 0 9 -4 17 -8 17 -4 0 -8 9 -8 20 0 11 4 20 8 20 4 0 8 5 8 11 0
8 -5 8 -15 -1 -10 -8 -15 -9 -15 -1 0 6 9 16 20 23 11 7 20 16 20 21 0 4 -5 5
-11 1 -7 -4 -10 -1 -7 6 2 8 -3 21 -12 30 -23 23 -35 127 -18 148 11 14 10 15
-7 8 -11 -4 -16 -3 -11 1 4 4 18 8 29 8 12 0 21 6 20 13 -2 6 2 12 8 12 6 0 9
8 7 18 -5 19 21 27 33 10 7 -11 41 1 34 12 -3 5 5 6 17 4 13 -2 17 -2 11 2 -7
3 -13 13 -13 22 0 13 3 12 19 -4 10 -11 14 -22 8 -25z m-5181 -942 c1 -375 46
-744 135 -1104 39 -157 146 -493 187 -584 11 -24 44 -97 73 -162 29 -66 57
-124 63 -130 6 -7 11 -18 12 -24 2 -30 5 -34 16 -27 7 4 8 3 4 -4 -6 -11 18
-60 37 -73 5 -3 8 -10 8 -15 -2 -19 11 -44 20 -39 5 3 6 -1 3 -9 -3 -8 4 -24
15 -35 12 -12 21 -23 21 -26 0 -3 0 -10 0 -16 0 -5 4 -8 9 -5 5 3 12 -1 15
-10 4 -10 2 -13 -7 -9 -6 4 -1 -3 13 -15 14 -12 18 -19 10 -15 -8 4 -6 -1 4
-9 11 -9 16 -16 11 -16 -5 0 0 -7 11 -16 10 -8 12 -12 4 -8 -8 4 -4 -4 9 -17
12 -13 52 -68 87 -122 62 -95 196 -275 257 -347 263 -308 533 -564 817 -771
590 -433 1287 -710 1995 -794 147 -17 490 -35 580 -29 33 2 111 6 172 8 203
10 473 58 736 132 549 154 1131 468 1547 833 41 36 90 79 110 96 79 67 348
337 431 432 134 155 362 469 455 628 108 182 229 432 335 689 28 67 48 108 44
91 -10 -48 -163 -398 -238 -545 -125 -243 -191 -348 -411 -655 -254 -353 -721
-792 -1129 -1059 -598 -392 -1216 -610 -1895 -667 -180 -15 -612 -6 -772 16
-487 66 -877 182 -1306 390 -501 241 -954 582 -1333 1000 -200 221 -328 388
-474 617 -379 597 -596 1235 -672 1978 -17 171 -31 640 -18 640 4 0 8 -87 9
-193z m5085 -187 c52 -10 67 -20 119 -86 5 -7 14 -14 20 -16 6 -2 14 -22 17
-44 6 -50 -13 -73 -46 -52 -12 7 -21 19 -21 26 0 9 -6 12 -15 8 -19 -7 -19 -1
1 18 13 14 13 16 0 16 -8 0 -21 -7 -29 -15 -13 -13 -16 -13 -21 1 -3 8 -2 13
2 10 4 -2 20 7 37 20 l30 24 -60 -1 c-33 0 -98 4 -145 9 -47 6 -104 8 -127 7
-29 -3 -41 0 -39 8 1 7 1 9 -1 5 -3 -5 -12 -8 -21 -8 -9 0 -23 -4 -30 -9 -10
-6 -9 -11 4 -22 16 -12 17 -12 11 4 -8 21 0 21 33 1 23 -14 23 -14 3 -9 -13 4
-23 2 -23 -3 0 -11 37 -25 60 -23 10 1 11 -1 4 -6 -6 -4 -14 -18 -18 -30 -8
-26 -70 -43 -89 -24 -17 17 -27 13 -20 -6 6 -17 5 -17 -14 0 -11 9 -23 14 -26
10 -4 -3 -7 -1 -7 5 0 6 8 13 18 15 13 4 11 5 -5 6 -13 0 -23 7 -23 14 0 8 -4
7 -10 -3 -8 -12 -11 -13 -19 -1 -6 9 -11 10 -15 2 -11 -17 -45 -13 -73 9 -14
11 -21 20 -14 20 6 0 11 7 11 16 0 8 5 12 10 9 9 -6 14 8 11 28 -2 12 51 29
76 24 12 -2 20 -1 18 3 -3 4 24 8 60 8 35 0 68 3 73 6 5 3 39 2 75 -2 51 -7
67 -5 71 5 3 7 2 12 -2 11 -4 -1 -14 2 -22 5 -8 3 -24 8 -35 10 -42 10 155 6
206 -3z m1304 -164 c28 -8 49 -19 48 -25 -2 -5 4 -8 12 -5 19 8 47 -14 38 -29
-3 -5 -1 -7 5 -4 11 7 72 -23 72 -35 0 -11 -18 -10 -25 2 -3 6 -15 10 -25 10
-10 0 -25 7 -34 15 -8 8 -17 15 -20 15 -3 0 -3 -7 0 -15 4 -8 1 -15 -6 -15 -6
0 -8 -5 -5 -10 4 -6 15 -8 24 -5 11 3 25 -3 36 -15 10 -11 21 -17 25 -15 10 6
40 -39 40 -60 0 -8 -4 -15 -9 -15 -12 0 -48 46 -57 72 -5 16 -11 18 -32 13
-38 -9 -59 -32 -45 -46 13 -13 36 -2 27 13 -6 9 12 27 27 28 17 0 19 -35 2
-47 -16 -12 -16 -14 0 -30 9 -9 20 -13 24 -9 5 5 2 11 -4 13 -19 7 -16 22 4
19 24 -4 42 -34 26 -44 -8 -5 -11 -22 -8 -45 3 -24 1 -37 -7 -37 -6 0 -8 3 -5
7 4 3 -1 12 -11 19 -21 17 -40 18 -24 2 15 -15 16 -31 1 -22 -6 3 -15 0 -20
-7 -7 -12 -16 -10 -48 9 -22 12 -42 22 -44 22 -2 0 -4 -14 -5 -31 -1 -33 -22
-68 -22 -36 0 11 -8 17 -25 17 -20 0 -25 -5 -25 -25 0 -14 -5 -25 -11 -25 -7
0 -9 12 -5 33 6 32 5 32 -41 44 -27 7 -58 15 -69 18 -17 5 -22 2 -26 -20 -5
-24 -3 -26 17 -23 21 4 64 -17 54 -26 -6 -6 -166 28 -176 37 -4 5 -1 6 7 3 8
-2 29 -7 46 -10 28 -4 32 -2 37 20 2 13 0 27 -5 30 -4 3 -6 10 -2 15 4 6 11 6
20 -2 11 -9 14 -7 14 10 0 11 5 21 11 21 6 0 8 -8 5 -18 -5 -14 3 -20 39 -30
60 -16 82 -15 89 4 13 34 -15 45 -46 17 -17 -16 -20 -16 -36 2 -16 17 -16 18
1 12 11 -4 17 -1 17 8 0 10 -11 16 -32 16 -18 1 -42 2 -53 3 -11 1 -28 -9 -38
-21 -19 -24 -87 -33 -87 -13 0 6 11 8 25 4 27 -7 48 9 59 44 4 12 14 22 22 22
8 0 12 -4 9 -10 -3 -5 1 -10 9 -10 8 0 18 4 21 10 4 6 19 5 40 -4 22 -10 37
-11 41 -5 9 14 0 21 -33 24 -25 2 -115 16 -135 21 -5 1 -11 2 -15 3 -4 0 -2 6
5 13 8 8 15 8 25 0 8 -7 29 -10 48 -8 19 2 46 0 61 -4 19 -6 28 -4 32 5 5 15
-46 31 -64 20 -5 -3 -15 -3 -21 1 -15 9 9 24 39 24 14 0 27 9 34 25 6 14 20
25 30 25 11 0 26 7 34 15 19 19 30 19 37 1 4 -10 1 -13 -9 -9 -7 3 -14 0 -14
-6 0 -8 12 -10 36 -5 28 5 42 2 66 -16 37 -27 47 -20 20 15 -14 17 -22 21 -26
13 -4 -9 -10 -6 -22 10 -9 12 -22 22 -28 22 -6 0 -4 -5 4 -11 12 -9 11 -9 -5
-3 -11 4 -45 10 -75 14 -42 6 -58 4 -66 -6 -6 -8 -16 -14 -23 -14 -6 0 -11 -4
-11 -9 0 -5 -11 -11 -25 -13 -14 -3 -25 -1 -25 3 0 5 7 9 15 9 8 0 15 4 15 9
0 5 11 12 25 15 14 4 25 11 25 16 0 12 -72 -18 -87 -37 -7 -9 -17 -12 -24 -7
-9 5 -5 10 12 16 19 8 21 11 9 19 -12 8 -11 9 5 5 11 -3 31 1 45 9 30 17 148
12 225 -9z m-1385 -85 c0 -5 9 -7 21 -4 12 3 24 2 28 -3 3 -5 15 -14 26 -20
16 -9 22 -8 32 5 10 14 11 13 6 -6 -3 -13 1 -33 10 -46 11 -17 12 -28 5 -41
-7 -13 -5 -21 8 -30 12 -9 14 -15 6 -20 -7 -4 -12 -1 -12 6 0 9 -3 9 -10 -2
-5 -8 -14 -15 -20 -15 -5 0 -9 -4 -7 -10 1 -5 5 -9 10 -7 4 1 7 -2 7 -8 0 -5
5 -10 10 -10 6 0 10 7 10 16 0 8 5 12 11 9 6 -4 8 -13 5 -21 -3 -7 0 -16 5
-20 7 -4 7 -10 0 -17 -17 -17 -13 -27 7 -21 13 5 14 4 3 -4 -10 -7 -20 -7 -32
1 -20 12 -16 27 7 27 27 0 4 19 -31 26 -19 3 -35 10 -35 15 0 5 -5 9 -10 9 -7
0 -7 -7 0 -21 8 -13 17 -18 28 -14 9 3 13 3 10 0 -4 -4 -3 -18 2 -31 5 -13 6
-24 2 -24 -5 0 -18 -9 -30 -20 -12 -12 -22 -16 -22 -10 0 5 -9 10 -21 10 -11
0 -18 4 -15 8 8 13 -27 11 -43 -2 -11 -8 -13 -8 -7 1 5 9 2 11 -9 6 -10 -3
-21 0 -27 8 -8 11 -8 10 -4 -5 5 -13 2 -17 -9 -12 -8 3 -15 1 -15 -4 0 -13
-58 -6 -73 9 -8 8 -8 11 0 11 15 0 43 28 43 43 0 7 -5 4 -11 -5 -6 -12 -21
-16 -49 -15 -23 1 -34 4 -27 9 13 8 3 11 -27 8 -10 -1 -15 3 -12 8 3 6 0 12
-6 15 -10 4 -10 7 0 18 11 12 14 12 21 0 11 -17 31 -6 30 17 0 15 -1 15 -7 1
-6 -14 -9 -14 -27 4 l-20 20 20 -6 c20 -7 20 -7 0 8 -18 14 -20 14 -27 -2 -6
-16 -7 -16 -7 3 -1 27 8 35 28 25 9 -5 25 -5 36 0 17 6 17 8 3 8 -10 1 -18 5
-18 11 0 5 8 14 18 19 9 6 12 11 5 11 -6 0 -19 -10 -27 -22 -14 -20 -21 -18
-17 5 2 16 -10 5 -28 -24 -11 -18 -22 -26 -25 -20 -4 6 -2 11 4 11 6 0 9 4 6
9 -8 12 35 48 67 56 15 4 27 12 27 17 0 6 -11 7 -26 4 -19 -5 -25 -3 -21 6 2
7 12 12 22 10 9 -2 14 1 11 7 -4 5 -1 13 5 17 7 4 9 3 5 -4 -4 -7 10 -9 45 -5
41 4 50 2 43 -9 -6 -10 -5 -10 9 1 9 7 17 11 17 7 0 -4 12 0 28 8 31 17 62 20
62 7z m1673 -236 c31 -4 57 -9 57 -13 0 -10 -82 -8 -98 1 -6 5 -12 3 -12 -2 0
-6 -15 -12 -32 -12 -18 -1 -1 -6 37 -10 39 -5 71 -14 73 -19 2 -5 10 -6 18 -3
8 3 14 0 14 -7 0 -7 -12 -10 -33 -7 -50 7 -151 -10 -265 -43 -57 -17 -108 -27
-114 -24 -6 4 -8 3 -5 -3 4 -6 0 -14 -9 -17 -8 -3 -12 -2 -9 4 3 6 -1 10 -10
10 -11 0 -15 -5 -12 -14 7 -17 -14 -27 -32 -16 -28 17 129 90 259 120 30 7 50
15 43 17 -7 3 -45 -5 -84 -16 -40 -11 -76 -18 -80 -15 -4 2 -11 0 -14 -6 -5
-8 -11 -7 -21 1 -12 10 -14 10 -12 0 2 -7 -8 -20 -22 -29 l-25 -16 19 22 c22
25 15 28 -17 8 -12 -8 -49 -27 -82 -41 -50 -21 -56 -22 -35 -6 27 21 113 66
195 102 54 23 185 48 225 43 14 -2 51 -6 83 -9z m-85 -144 c12 -11 22 -24 22
-30 0 -5 6 -14 13 -18 6 -4 23 -21 37 -38 18 -21 20 -25 5 -15 -57 42 -72 57
-78 72 -4 10 -7 10 -18 0 -15 -15 -17 -13 60 -68 20 -14 28 -24 19 -24 -8 0
-33 14 -54 31 -21 17 -40 26 -42 20 -5 -16 40 -60 55 -54 7 3 13 0 13 -6 0
-19 -21 -12 -71 24 -57 41 -59 41 -59 17 0 -11 11 -24 25 -30 14 -6 25 -17 25
-23 0 -6 7 -9 15 -5 10 4 15 -1 15 -14 0 -27 -5 -25 -53 13 -50 39 -87 59 -87
46 0 -5 -5 -9 -11 -9 -6 0 -8 7 -5 16 4 11 -1 22 -14 31 -11 8 -20 20 -20 26
0 7 7 4 15 -6 9 -12 20 -17 33 -13 14 5 21 1 25 -14 9 -36 25 -21 32 30 8 56
32 65 27 11 -2 -23 2 -31 10 -28 7 2 12 11 10 19 -1 9 5 19 14 22 13 5 14 9 4
21 -19 22 9 19 38 -4z m-6208 -183 c59 -258 188 -614 312 -863 359 -715 924
-1338 1558 -1718 167 -100 467 -253 580 -296 459 -177 874 -264 1310 -278 407
-12 807 42 1190 162 345 107 733 300 1073 532 60 41 106 70 103 64 -10 -15
-203 -143 -356 -236 -449 -271 -891 -428 -1421 -507 -136 -20 -192 -23 -484
-23 -362 0 -417 6 -737 70 -329 66 -608 161 -903 305 -829 405 -1461 1029
-1899 1875 -91 175 -144 301 -232 553 -66 188 -153 524 -130 501 2 -2 18 -66
36 -141z m3178 -34 c5 -8 20 -21 33 -28 13 -7 23 -18 22 -24 -2 -6 4 -9 12 -6
13 5 82 -37 129 -78 11 -10 23 -18 27 -18 18 0 249 -162 244 -171 -4 -5 -3 -8
2 -7 10 3 63 -27 168 -93 105 -66 179 -103 238 -119 26 -7 47 -17 47 -21 0
-11 -5 -11 -73 2 -68 14 -68 14 -194 -131 -141 -162 -291 -312 -303 -305 -12
7 19 46 31 39 7 -4 28 18 26 26 -3 10 29 47 51 59 13 7 21 15 18 18 -3 3 17
28 44 55 28 27 50 54 50 59 0 6 5 7 12 3 6 -4 8 -3 5 3 -4 6 0 16 8 23 8 7 15
17 15 23 0 6 -17 -6 -38 -26 -36 -35 -72 -49 -72 -27 0 5 6 7 14 4 8 -3 19 3
25 15 15 28 14 36 -4 21 -10 -9 -15 -9 -15 -1 0 6 -5 11 -11 11 -6 0 -9 -6 -6
-13 3 -8 -1 -14 -8 -14 -11 0 -11 5 -3 20 8 17 8 19 -5 14 -11 -4 -14 -2 -11
7 3 8 1 17 -5 21 -6 3 -11 -2 -12 -12 0 -12 -4 -9 -11 10 -5 15 -14 27 -20 27
-6 0 -7 -7 -4 -16 3 -8 2 -12 -4 -9 -13 8 -13 35 0 35 6 0 10 5 10 10 0 7 -7
7 -20 0 -11 -6 -18 -15 -15 -21 4 -5 1 -9 -4 -9 -14 0 -14 6 -1 30 7 13 7 21
-2 26 -6 4 -8 3 -5 -3 4 -6 0 -16 -8 -23 -13 -11 -14 -6 -9 30 6 40 5 42 -17
35 -19 -6 -21 -5 -12 5 6 7 23 13 37 13 14 0 31 7 38 16 12 14 11 15 -5 2 -14
-11 -21 -11 -29 -3 -9 9 -9 12 0 12 7 0 12 5 12 11 0 6 -6 9 -12 7 -7 -3 -13
-11 -13 -19 0 -15 -20 -27 -45 -28 -11 0 -10 3 4 14 16 12 17 17 5 32 -7 10
-20 24 -28 30 -8 7 -12 16 -8 20 4 3 17 -6 30 -20 26 -31 33 -33 41 -11 4 12
2 15 -9 10 -8 -3 -15 -1 -15 5 0 7 10 9 26 5 15 -4 32 -2 40 5 11 9 18 8 29
-1 9 -7 18 -10 22 -6 3 3 1 6 -5 6 -7 0 -12 5 -12 11 0 6 6 9 13 6 8 -3 20 -1
28 5 11 8 10 8 -5 4 -15 -5 -17 -4 -7 7 9 11 8 17 -4 27 -11 9 -15 9 -15 1 0
-7 -10 -3 -22 9 -12 11 -27 20 -32 20 -6 0 -5 4 2 8 20 13 5 34 -48 70 -47 30
-65 32 -37 3 10 -11 9 -13 -3 -9 -8 3 -16 14 -18 26 -2 12 -6 22 -10 22 -4 0
-22 13 -41 29 -19 17 -38 28 -43 25 -4 -3 -5 1 -2 9 3 8 0 18 -7 23 -8 4 -10
3 -5 -4 12 -19 -2 -14 -25 11 -12 12 -18 15 -14 7 4 -8 -2 -5 -14 8 -12 12
-26 22 -31 22 -5 0 -7 7 -4 15 4 11 -1 15 -17 15 -14 0 -40 16 -61 36 -21 19
-38 32 -38 29 0 -3 -5 -3 -10 0 -11 7 -4 25 10 25 5 0 13 -7 18 -16z m1227
-192 c-6 -4 -11 -14 -11 -22 -3 -31 -10 -45 -27 -58 -18 -14 -14 -37 5 -26 6
4 8 2 5 -3 -4 -6 0 -16 8 -23 13 -11 14 -8 10 21 -5 31 -4 31 4 7 5 -14 6 -48
3 -75 -3 -26 -5 -65 -6 -85 0 -21 -4 -34 -10 -31 -5 3 -6 1 -2 -5 4 -7 -5 -32
-19 -56 -26 -44 -26 -45 -9 -78 9 -18 24 -38 33 -45 10 -8 12 -12 4 -13 -8 0
-2 -21 18 -59 17 -32 29 -67 27 -77 -3 -13 -10 -3 -23 31 -11 28 -26 58 -35
68 -8 10 -15 21 -15 25 0 15 -89 123 -109 134 -12 6 -4 -7 20 -33 53 -57 97
-132 135 -227 17 -43 53 -119 81 -170 27 -52 48 -96 45 -98 -7 -8 -77 114
-125 219 -108 236 -181 327 -264 327 -21 0 -38 4 -38 10 0 5 7 7 15 4 8 -4 15
-1 15 5 0 6 6 11 13 11 8 0 37 37 65 83 74 120 95 146 115 147 15 0 47 50 52
80 2 13 18 31 23 25 4 -3 2 -9 -3 -13z m1886 -79 c5 -68 12 -103 23 -121 4 -7
3 -19 -4 -27 -8 -10 -8 -19 -1 -34 17 -32 13 -40 -26 -59 -21 -9 -41 -21 -45
-27 -4 -5 -10 -6 -15 -1 -4 4 0 12 10 17 22 13 22 31 1 27 -10 -2 -19 4 -21
12 -4 13 -3 13 6 0 16 -22 13 -1 -6 50 -10 25 -29 56 -43 69 -14 13 -18 18 -9
12 17 -12 29 -5 29 17 0 8 -6 12 -15 8 -8 -3 -15 -1 -15 4 0 6 0 13 -1 17 -1
10 81 42 109 42 12 1 22 -2 23 -6z m312 -196 c22 -10 37 -26 46 -50 8 -21 18
-37 22 -37 12 0 6 -41 -11 -78 -9 -19 -20 -30 -28 -27 -8 3 -18 5 -23 5 -6 0
-5 8 1 20 6 11 7 20 3 20 -5 0 -14 -14 -20 -31 -11 -27 -16 -31 -43 -27 -16 3
-30 0 -30 -5 0 -6 -3 -8 -6 -4 -4 3 -27 -5 -52 -18 -25 -13 -50 -21 -55 -18
-6 4 -8 0 -4 -10 8 -22 -10 -32 -30 -15 -15 12 -15 11 -4 -9 13 -25 3 -31 -17
-11 -9 9 -12 8 -12 -6 0 -15 -3 -16 -14 -7 -11 9 -15 9 -19 -1 -4 -10 -7 -11
-18 0 -9 9 -10 12 -1 12 7 0 12 5 12 11 0 5 -4 7 -10 4 -6 -3 -7 1 -4 10 4 10
-10 33 -40 65 -25 27 -46 52 -46 56 0 12 43 44 121 89 80 46 95 52 84 36 -3
-6 6 -6 24 -1 17 5 40 6 52 3 15 -4 20 -3 15 5 -5 8 0 12 13 12 11 0 23 5 26
10 8 14 30 13 68 -3z m-2401 -175 c8 -6 17 -10 19 -8 2 2 9 -2 16 -9 9 -10 -5
-11 -73 -7 -81 4 -84 4 -84 -17 0 -22 14 -28 25 -12 6 11 44 6 57 -7 10 -10
-41 -56 -100 -89 -31 -18 -40 -15 -17 5 22 20 30 42 15 42 -5 0 -10 -7 -10
-15 0 -8 -2 -15 -4 -15 -2 0 -13 -3 -23 -7 -17 -6 -17 -5 -2 13 19 22 36 52
24 42 -4 -4 -14 -3 -21 3 -8 7 -14 7 -19 -1 -3 -5 -11 -10 -17 -10 -6 0 -5 7
3 17 12 15 12 16 -3 10 -12 -4 -18 -1 -18 9 0 8 -5 12 -11 9 -5 -4 -19 3 -30
16 -22 26 -22 26 -7 35 7 4 8 3 4 -4 -4 -7 -2 -12 3 -12 6 0 11 4 11 9 0 6 8
8 18 6 10 -2 25 1 32 5 21 13 195 7 212 -8z m43 -189 c-2 -16 -4 -32 -4 -36
-1 -5 -5 -6 -10 -3 -5 3 -11 -1 -15 -9 -3 -8 0 -17 6 -21 6 -4 8 -3 5 3 -4 6
2 13 13 16 11 3 18 1 14 -4 -3 -5 1 -9 8 -10 7 0 4 -4 -7 -9 -11 -5 -15 -9 -9
-9 6 -1 10 -12 9 -26 -2 -14 1 -25 6 -25 6 0 7 -5 4 -10 -4 -6 -10 -8 -15 -5
-4 3 -10 -4 -13 -15 -5 -21 7 -28 18 -10 14 22 22 7 24 -40 0 -33 -3 -49 -10
-45 -5 4 -16 1 -24 -5 -8 -7 -15 -9 -15 -4 0 5 -4 4 -8 -3 -4 -7 -17 -10 -31
-6 -17 4 -19 8 -9 14 10 7 10 9 1 9 -23 0 -14 29 15 45 l27 15 -30 -6 c-25 -4
-27 -3 -12 6 9 6 17 16 17 22 0 7 -6 6 -15 -2 -13 -11 -14 -10 -9 5 7 16 5 16
-24 1 l-32 -16 11 23 c9 19 17 23 42 21 23 -3 28 -1 17 5 -8 6 -18 7 -23 4 -5
-3 -13 0 -17 8 -7 10 -11 10 -25 -1 -15 -12 -15 -11 -3 16 7 16 17 33 23 37 5
5 0 6 -12 2 -21 -6 -22 -4 -11 25 7 21 15 29 25 26 8 -3 12 -2 9 3 -7 11 17
21 50 21 13 0 24 5 24 10 0 6 4 10 9 10 5 0 8 -12 6 -27z m2285 -133 c0 -7 6
-7 18 -2 19 10 62 9 78 -1 5 -3 16 -2 24 4 28 17 78 10 105 -15 16 -15 37 -23
58 -23 17 0 44 -2 60 -6 17 -5 27 -3 27 4 0 6 7 8 17 5 10 -4 14 -4 10 0 -4 4
3 12 16 19 18 9 28 7 53 -7 46 -27 61 -48 67 -95 4 -34 2 -40 -8 -30 -7 7 -11
17 -8 23 2 7 -10 17 -27 23 -17 6 -29 15 -26 20 4 5 -2 9 -11 9 -10 0 -27 3
-38 6 -20 8 -20 7 -1 -8 21 -17 21 -18 -11 -35 -13 -6 -23 -17 -23 -23 0 -7 5
-6 15 2 23 19 18 3 -7 -20 -12 -11 -30 -20 -40 -20 -10 0 -18 -4 -18 -9 0 -5
-16 -18 -35 -30 -19 -11 -35 -16 -35 -11 0 20 13 40 27 40 8 0 11 -5 7 -12 -4
-7 -3 -8 4 -4 8 5 9 13 2 25 -7 15 -6 18 8 17 12 -1 16 6 15 22 -2 13 1 21 7
17 6 -3 10 -12 10 -20 0 -8 5 -17 11 -21 7 -4 10 -1 7 7 -3 8 -2 21 3 30 7 13
3 18 -19 22 -25 5 -46 -9 -36 -24 2 -4 -3 -9 -11 -13 -15 -5 -17 17 -3 40 9
13 -57 13 -69 0 -4 -5 -1 -7 9 -3 9 3 19 0 22 -9 6 -15 -18 -15 -42 0 -11 7
-11 4 -1 -12 7 -11 18 -18 25 -15 23 8 24 -16 2 -31 -30 -21 -41 -20 -29 3 8
14 7 20 -5 25 -8 3 -13 2 -9 -3 9 -15 -6 -40 -21 -34 -8 3 -14 0 -14 -6 0 -6
-5 -11 -11 -11 -5 0 -8 4 -4 9 12 21 -19 23 -36 3 -18 -23 -49 -30 -49 -11 0
6 -13 8 -32 5 -18 -3 -39 0 -47 7 -12 10 -13 9 -6 -2 6 -11 4 -13 -9 -8 -10 4
-15 3 -11 -3 3 -6 -1 -10 -10 -10 -10 0 -13 -5 -9 -12 4 -8 3 -10 -2 -5 -5 5
-9 12 -9 15 -1 4 -13 21 -27 37 -15 17 -36 41 -47 55 -11 14 -20 20 -21 13 0
-6 16 -30 35 -53 19 -23 35 -45 35 -48 -1 -10 -58 58 -79 94 -18 30 -18 31 8
65 26 34 61 50 61 29 0 -6 -4 -8 -10 -5 -5 3 -10 4 -10 1 0 -3 18 -15 40 -26
22 -11 40 -16 40 -11 0 5 23 7 50 6 28 -2 53 1 56 6 3 5 -3 9 -13 10 -11 0
-13 3 -5 6 6 2 10 9 6 14 -3 5 -13 5 -24 -1 -13 -7 -21 -6 -30 5 -9 11 -9 15
-1 15 6 0 11 -5 11 -10z m-2810 -132 c32 -34 59 -64 58 -67 -2 -20 4 -31 17
-31 8 0 15 -5 15 -11 0 -5 -6 -7 -12 -3 -10 6 -10 4 0 -7 15 -16 16 -33 2 -24
-16 10 -7 -18 10 -32 20 -16 33 -16 24 0 -5 9 -4 9 5 1 6 -6 9 -19 5 -28 -5
-13 -9 -14 -14 -5 -5 6 -15 9 -25 6 -9 -4 -14 -11 -11 -16 3 -5 -2 -12 -11
-15 -14 -6 -14 -8 3 -21 11 -8 14 -15 7 -15 -7 0 -13 -5 -13 -11 0 -6 7 -8 16
-5 14 5 15 4 4 -9 -8 -10 -9 -15 -2 -15 6 0 9 -7 5 -15 -3 -9 1 -23 9 -33 8
-9 14 -30 13 -47 -1 -16 4 -42 11 -57 12 -24 12 -28 -4 -38 -15 -9 -14 -10 5
-5 18 5 22 3 17 -9 -3 -9 -10 -13 -15 -10 -6 3 -7 -5 -3 -21 5 -21 4 -26 -7
-23 -8 3 -13 13 -13 22 1 9 -6 16 -15 16 -13 0 -13 2 -3 9 11 6 6 19 -23 56
-28 37 -33 50 -23 56 10 7 9 9 -3 9 -9 0 -21 11 -27 25 -6 14 -16 25 -21 25
-5 0 -12 7 -15 16 -3 8 -2 12 4 9 6 -3 10 -2 10 3 0 6 -11 13 -25 16 -14 4
-25 12 -25 19 0 6 -7 26 -16 42 -48 87 -55 98 -49 81 4 -16 3 -17 -9 -7 -8 7
-12 20 -9 28 4 10 2 14 -4 10 -6 -4 -16 -1 -22 7 -9 11 -6 12 16 8 16 -2 34
-9 41 -15 8 -6 12 -5 12 4 0 15 31 -16 49 -49 7 -13 16 -20 22 -17 8 5 14 -15
10 -37 -1 -11 21 -5 36 9 15 14 7 43 -13 43 -8 0 -14 4 -14 8 0 5 -10 14 -22
21 l-23 11 24 -6 c16 -4 21 -3 17 5 -4 7 -1 9 8 5 8 -3 12 -12 9 -20 -3 -8 -1
-14 4 -14 5 0 10 16 11 35 2 21 -2 35 -9 35 -6 0 -19 10 -29 23 -14 16 -15 25
-7 35 8 10 7 12 -2 10 -20 -5 -52 44 -45 70 4 12 11 22 16 22 5 0 36 -28 68
-62z m711 20 c4 -7 5 -16 3 -20 -3 -4 0 -16 6 -25 11 -17 11 -17 6 0 -5 15 -1
18 17 15 12 -2 22 -10 23 -18 1 -8 2 -17 3 -20 10 -21 7 -40 -5 -40 -10 0 -12
-5 -7 -12 4 -7 6 -22 5 -33 -2 -17 -1 -17 7 -5 9 13 11 13 11 -2 0 -9 -4 -20
-10 -23 -5 -3 -10 -14 -9 -23 0 -14 2 -14 10 3 7 16 8 13 4 -13 -3 -20 -1 -31
5 -27 6 3 10 -2 10 -12 0 -23 36 -168 45 -183 3 -6 8 -24 10 -41 3 -21 1 -28
-8 -22 -7 4 -4 -5 6 -20 9 -15 13 -27 9 -27 -5 0 -1 -25 9 -57 22 -67 25 -93
7 -75 -6 6 -13 19 -14 28 -4 28 -46 128 -66 156 -11 15 -21 38 -23 50 -3 13
-16 31 -30 41 -14 10 -25 25 -25 34 0 8 -6 29 -14 46 -8 18 -20 51 -26 75 -6
23 -15 42 -21 42 -6 0 -8 4 -5 9 3 5 -1 14 -9 21 -8 7 -15 22 -15 35 0 12 -3
25 -7 29 -14 14 -11 41 9 68 11 16 18 35 15 42 -3 8 -3 17 1 21 10 10 65 -3
73 -17z m-220 -101 c-7 -7 -7 -16 0 -29 6 -11 8 -26 5 -34 -3 -8 -2 -14 3 -14
5 0 7 -15 4 -34 -2 -19 1 -37 7 -41 5 -3 10 -19 10 -36 0 -16 4 -29 9 -29 5 0
7 -10 4 -22 -3 -17 -2 -19 5 -10 7 10 11 5 17 -20 4 -18 7 -37 6 -41 -1 -5 9
-6 21 -3 13 3 18 3 11 0 -13 -6 -6 -34 8 -34 21 0 -4 142 -40 233 -6 15 -7 27
-3 27 9 0 39 -68 52 -120 5 -22 15 -59 21 -82 6 -25 6 -44 1 -46 -5 -1 -7 -14
-4 -27 5 -29 -5 -31 -35 -10 -12 8 -28 12 -37 9 -25 -10 -19 5 7 17 19 8 18 9
-7 4 -24 -5 -34 -1 -53 21 -27 32 -29 38 -6 30 16 -6 16 -6 0 12 -9 10 -17 30
-17 43 0 13 -4 51 -10 84 -12 73 -12 135 0 151 6 6 7 14 3 18 -4 4 1 4 10 0
13 -4 15 -10 8 -17z m2709 -95 c0 -4 -13 -13 -30 -19 -16 -6 -30 -18 -30 -27
0 -9 -4 -16 -10 -16 -5 0 -7 7 -4 15 7 17 -11 21 -21 5 -3 -5 -18 -10 -33 -11
-15 0 -21 -3 -14 -6 6 -2 12 -10 12 -17 0 -16 58 -9 80 9 8 7 26 18 39 25 21
11 23 10 18 -4 -4 -10 -3 -15 1 -12 5 3 20 7 35 10 20 3 27 1 27 -12 0 -12 3
-13 11 -5 6 6 18 9 25 6 9 -3 14 1 14 12 0 12 -6 15 -22 10 -18 -5 -20 -4 -8
4 27 19 40 13 38 -19 -2 -21 -7 -29 -16 -25 -9 3 -12 -1 -7 -14 3 -10 -1 -24
-10 -31 -12 -10 -15 -10 -15 4 0 18 -35 22 -46 4 -4 -7 -3 -8 4 -4 7 4 12 2
12 -3 0 -6 -5 -11 -11 -11 -5 0 -7 -4 -4 -10 10 -16 25 -12 25 7 0 9 3 14 6
10 3 -3 3 -15 -1 -26 -8 -26 -40 -27 -55 -3 -8 14 -9 11 -4 -13 5 -28 4 -29
-10 -11 -10 12 -12 25 -7 40 14 36 2 49 -25 27 -14 -11 -32 -17 -40 -14 -7 3
-16 -2 -20 -10 -3 -9 -12 -13 -21 -10 -12 5 -14 3 -8 -7 6 -10 4 -12 -7 -8 -8
4 -21 2 -29 -3 -11 -7 -10 -9 5 -9 18 0 18 -1 1 -20 -10 -11 -22 -17 -27 -14
-6 4 -5 9 2 14 8 5 8 9 -3 13 -8 3 -24 -3 -36 -14 -17 -16 -21 -17 -21 -4 0 8
5 15 11 15 5 0 7 5 4 10 -9 15 -25 12 -25 -4 0 -7 -8 -20 -17 -27 -16 -12 -17
-12 -6 2 21 27 2 29 -22 3 -24 -26 -40 -30 -51 -12 -4 6 -3 8 3 5 6 -4 13 0
17 8 3 9 0 15 -8 15 -8 0 -16 6 -19 13 -5 13 -1 86 5 93 2 2 35 11 74 20 38 9
81 20 96 24 16 5 30 4 33 -1 4 -5 13 -5 23 1 16 8 97 36 115 39 4 0 7 -3 7 -7z
m-125 -1100 c-225 -219 -489 -423 -777 -598 -154 -94 -623 -323 -635 -310 -2
2 22 14 54 26 85 34 436 210 539 271 280 164 539 362 834 637 97 91 88 74 -15
-26z"/>
<path d="M5327 9057 c-4 -25 -9 -81 -13 -125 l-7 -80 74 -7 c165 -15 204 6
204 110 0 96 -46 134 -174 142 l-78 6 -6 -46z"/>
<path d="M5696 5616 c3 -8 13 -17 22 -19 16 -4 16 -5 0 -6 -9 0 -20 3 -23 9
-6 10 -55 -36 -55 -51 0 -5 -7 -9 -16 -9 -8 0 -12 -5 -9 -10 3 -6 -1 -13 -10
-16 -9 -4 -14 -13 -11 -21 5 -11 0 -13 -17 -8 -12 3 -17 3 -12 -2 12 -10 15
-53 3 -53 -4 0 -8 5 -8 10 0 6 -5 10 -11 10 -5 0 -7 -4 -4 -10 3 -5 0 -10 -7
-10 -7 0 -5 -6 6 -12 20 -11 25 -8 69 53 l17 24 -7 -45 c-6 -39 -6 -98 -1
-137 1 -7 5 -13 10 -13 4 0 8 6 8 13 0 6 5 4 11 -5 5 -10 18 -18 27 -19 12 0
11 -3 -5 -9 -13 -5 -23 -12 -23 -14 0 -3 7 -3 15 0 8 4 15 2 15 -4 0 -6 -6
-13 -12 -15 -10 -4 -10 -6 0 -6 7 -1 15 6 18 14 4 8 10 12 15 9 5 -3 6 -10 3
-16 -4 -6 -3 -8 3 -5 5 3 22 0 37 -8 14 -8 24 -10 21 -5 -3 5 3 14 14 19 25
14 31 14 31 1 0 -5 -7 -10 -16 -10 -10 0 -14 -6 -10 -15 4 -11 -1 -15 -18 -15
-21 0 -43 -26 -32 -37 7 -8 46 8 46 18 0 5 5 9 10 9 6 0 10 -10 10 -22 0 -13
4 -30 10 -38 8 -12 10 -12 16 4 5 14 9 15 15 4 7 -10 9 -11 9 0 0 7 5 10 10 7
12 -7 13 7 3 21 -5 5 -1 1 9 -8 9 -10 19 -18 22 -18 3 0 15 -9 26 -20 24 -24
50 -26 50 -5 0 9 -6 15 -13 13 -7 -2 -14 0 -15 5 -5 17 -1 24 13 24 8 0 12 -4
9 -9 -8 -13 20 -9 42 7 12 8 25 11 29 7 5 -4 5 -1 1 6 -4 6 0 19 8 28 9 8 19
33 22 55 6 34 12 42 48 58 62 27 81 54 79 110 -1 25 -6 57 -11 71 -8 19 -9 10
-5 -37 l6 -61 -63 13 c-35 7 -69 11 -75 9 -14 -6 -45 21 -45 38 0 6 -3 8 -7 5
-3 -4 -12 -2 -18 3 -9 8 -15 5 -19 -7 -6 -15 -8 -15 -16 -3 -7 10 -10 11 -10
3 0 -16 -34 -17 -61 -3 -13 7 -19 7 -19 0 0 -5 -11 -10 -25 -10 -14 0 -25 -4
-25 -10 0 -5 -5 -10 -11 -10 -5 0 -7 5 -3 12 5 8 2 9 -9 5 -20 -8 -47 17 -47
44 0 10 -6 19 -14 19 -7 0 -13 10 -13 23 0 32 60 71 98 63 16 -3 29 -1 29 4 0
10 -5 11 -75 14 -22 0 -46 5 -52 9 -9 5 -11 3 -7 -7z"/>
</g>
</svg>
